<svg width="1086" height="644" viewBox="0 0 1086 644" fill="none" xmlns="http://www.w3.org/2000/svg">
<path d="M1069.48 543.522C1077.12 535.877 1076.31 535.003 1076.31 526.64V14.6085C1077.12 10.4724 1077.41 6.25271 1077.18 2.04506C1077.18 2.04506 1074.91 2.01797 1069.48 2.19541L899.126 100.673V642H905.773L1069.48 543.522Z" fill="white" stroke="black" stroke-width="3.62566" stroke-linecap="round" stroke-linejoin="round"/>
<path d="M1076.12 543.522C1080.05 539.599 1080.32 538.327 1080.32 529.964V23.38C1087.18 16.5147 1083.33 -5.0107 1074.02 4.29848L905.772 100.673V642L1076.12 543.522Z" fill="white" stroke="black" stroke-width="3.62566" stroke-linecap="round" stroke-linejoin="round"/>
<path d="M1077.55 21.1157C1075.89 23.1985 1074.19 21.8472 1073.78 18.0525C1073.36 14.3552 1074.17 10.6236 1076.08 7.42973C1077.79 5.33825 1079.47 6.72192 1079.87 10.4896C1080.31 14.1924 1079.49 17.9348 1077.55 21.1157Z" stroke="black" stroke-width="3.62566" stroke-linecap="round" stroke-linejoin="round"/>
<path d="M899.126 100.673H905.773" stroke="black" stroke-width="3.62566" stroke-linecap="round" stroke-linejoin="round"/>
<path d="M172.163 543.522C179.806 535.877 179.001 535.003 179.001 526.64V14.6086C179.806 10.4725 180.098 6.25283 179.871 2.04518C179.871 2.04518 177.592 2.0181 172.165 2.19553L1.81287 100.674V642H8.45943L172.163 543.522Z" fill="white" stroke="black" stroke-width="3.62566" stroke-linecap="round" stroke-linejoin="round"/>
<path d="M178.81 543.522C183.103 539.229 183.006 538.327 183.006 529.964V23.38C189.871 16.5147 186.015 -5.0107 176.707 4.29848L8.45959 100.673V642L178.81 543.522Z" fill="white" stroke="black" stroke-width="3.62566" stroke-linecap="round" stroke-linejoin="round"/>
<path d="M180.236 21.1157C178.581 23.1985 176.875 21.8472 176.468 18.0525C176.053 14.3552 176.861 10.6236 178.769 7.42973C180.477 5.33825 182.16 6.72192 182.564 10.4896C183.001 14.1924 182.181 17.9348 180.236 21.1157Z" stroke="black" stroke-width="3.62566" stroke-linecap="round" stroke-linejoin="round"/>
<path d="M1.81287 100.673H8.46007" stroke="black" stroke-width="3.62566" stroke-linecap="round" stroke-linejoin="round"/>
<path d="M897.779 128.067H9.80688V614.606H897.779V128.067Z" fill="white"/>
<path d="M899.126 100.672L1069.47 2.19467L179.419 2.0448L8.45703 100.672H899.126Z" fill="white" stroke="black" stroke-width="3.62566" stroke-linecap="round" stroke-linejoin="round"/>
<path d="M899.126 100.673H8.45959V128.067H899.126V100.673Z" fill="white" stroke="black" stroke-width="3.62566" stroke-linecap="round" stroke-linejoin="round"/>
<path d="M454.4 200.439C463.47 200.439 470.823 193.085 470.823 184.014C470.823 174.943 463.47 167.59 454.4 167.59C445.33 167.59 437.978 174.943 437.978 184.014C437.978 193.085 445.33 200.439 454.4 200.439Z" stroke="black" stroke-width="3.62566" stroke-linecap="round" stroke-linejoin="round"/>
<path d="M899.126 614.606H8.45959V642H899.126V614.606Z" fill="white" stroke="black" stroke-width="3.62566" stroke-linecap="round" stroke-linejoin="round"/>
</svg>
