<svg width="850" height="644" viewBox="0 0 850 644" fill="none" xmlns="http://www.w3.org/2000/svg">
<path d="M841.661 0.318733C842.815 0.134195 843.925 0.321097 844.923 0.842171C847.196 2.02913 848.51 4.71784 849.18 7.39491C849.877 10.1816 850.012 13.4735 849.517 16.5424C849.069 19.3132 848.072 22.0902 846.319 24.141V529.975C846.319 534.076 846.267 536.779 845.615 538.941C844.919 541.249 843.589 542.815 841.592 544.813C841.48 544.925 841.354 545.022 841.218 545.101L670.867 643.57C670.861 643.574 670.853 643.577 670.847 643.58C670.82 643.596 670.792 643.609 670.765 643.622C670.755 643.627 670.745 643.632 670.735 643.637C670.711 643.649 670.687 643.66 670.662 643.67C670.648 643.676 670.633 643.681 670.619 643.687C670.557 643.711 670.495 643.732 670.431 643.749C670.416 643.753 670.402 643.757 670.388 643.76C670.364 643.766 670.34 643.772 670.316 643.777C670.301 643.78 670.286 643.782 670.271 643.785C670.241 643.79 670.211 643.795 670.181 643.798C670.107 643.807 670.034 643.813 669.96 643.813H2C0.999017 643.813 0.187848 643.001 0.1875 642V100.726C0.187522 100.551 0.213109 100.38 0.260742 100.217C0.265891 100.2 0.270701 100.182 0.276367 100.164C0.30765 100.068 0.346984 99.9753 0.393555 99.8861C0.400721 99.8724 0.407537 99.8586 0.415039 99.8451C0.439074 99.8018 0.464682 99.7593 0.492188 99.7181C0.498419 99.7088 0.50532 99.7 0.511719 99.6908C0.535446 99.6567 0.560846 99.6237 0.586914 99.5912C0.595614 99.5804 0.604339 99.5696 0.613281 99.559C0.682064 99.4772 0.757704 99.4005 0.84082 99.3314C0.844921 99.328 0.849385 99.325 0.853516 99.3217C0.92801 99.2608 1.00795 99.2057 1.09277 99.1566L171.444 0.687874L171.645 0.588265C171.849 0.50151 172.069 0.452996 172.293 0.445687C175.018 0.356622 176.956 0.318678 178.218 0.303108C178.848 0.295327 179.309 0.293583 179.615 0.293343C179.768 0.293224 179.882 0.292929 179.959 0.293343C179.997 0.29355 180.027 0.294147 180.047 0.294319H180.524C180.99 0.234928 181.447 0.2351 181.892 0.294319L833.662 0.443733H833.665C836.359 0.356048 838.279 0.318569 839.531 0.303108C840.162 0.295328 840.624 0.293582 840.93 0.293343C841.082 0.293223 841.197 0.292929 841.273 0.293343C841.311 0.293551 841.341 0.294149 841.36 0.294319H841.394L841.57 0.305062C841.601 0.308407 841.631 0.313884 841.661 0.318733ZM3.8125 640.187H6.83398V102.538H3.8125V640.187ZM15.4062 640.187H661.5V616.421H56.5205L15.4062 640.187ZM665.126 640.187H668.147V102.538H665.126V640.187ZM10.459 638.793L47.6523 616.421H10.459V638.793ZM839.489 5.64198C839.376 5.75527 839.247 5.85329 839.108 5.93299L671.772 101.776V638.793L832.535 542.094C836.265 538.352 837.64 536.521 838.232 534.778C838.528 533.907 838.655 532.975 838.696 531.684C838.739 530.34 838.688 528.827 838.688 526.652V23.5619C838.533 23.4734 838.385 23.3724 838.244 23.2592C837.564 22.7103 837.109 21.9304 836.803 21.139C836.488 20.3262 836.277 19.3672 836.163 18.306L836.164 18.3051C835.707 14.2174 836.6 10.092 838.71 6.56092C838.755 6.48506 838.806 6.41257 838.862 6.34412C839.088 6.06844 839.342 5.80428 839.625 5.56971C839.625 5.54985 839.626 5.53 839.626 5.51014C839.581 5.55348 839.535 5.59646 839.489 5.64198ZM661.461 140.17V605.168C661.506 606.33 661.317 607.49 660.901 608.577C660.475 609.691 659.821 610.705 658.982 611.553C658.512 612.029 657.987 612.444 657.423 612.796H661.501V139.724C661.492 139.873 661.478 140.022 661.461 140.17ZM10.459 612.796H14.6768C14.0813 612.43 13.5291 611.995 13.0352 611.495C12.2076 610.659 11.5568 609.663 11.1211 608.57C10.6903 607.488 10.4793 606.332 10.499 605.168H10.498V140.075H10.499C10.4792 138.911 10.6903 137.755 11.1211 136.673C11.5568 135.58 12.2075 134.584 13.0352 133.747C13.8629 132.91 14.8509 132.248 15.9395 131.8C17.0221 131.355 18.183 131.131 19.3535 131.141V131.14H177.375V129.93H10.459V612.796ZM654.861 134.966C654.209 134.74 653.514 134.667 652.829 134.752C652.755 134.762 652.68 134.766 652.605 134.766H425.9C424.588 134.766 423.717 135.112 423.112 135.542C422.49 135.986 422.039 136.6 421.715 137.287C421.389 137.979 421.214 138.694 421.124 139.251C421.08 139.525 421.058 139.751 421.047 139.901C421.041 139.975 421.038 140.031 421.037 140.063C421.037 140.079 421.036 140.09 421.036 140.094V161.717C421.136 162.896 420.985 164.084 420.589 165.2C420.18 166.352 419.522 167.4 418.663 168.269C417.804 169.138 416.763 169.807 415.616 170.229C414.505 170.637 413.319 170.801 412.139 170.714H273.591C272.404 170.834 271.204 170.695 270.076 170.301C268.904 169.891 267.841 169.218 266.968 168.335C266.095 167.453 265.435 166.382 265.038 165.206C264.658 164.079 264.532 162.882 264.662 161.701V140.075C264.662 139.907 264.686 139.739 264.732 139.578V139.576C264.733 139.575 264.733 139.572 264.733 139.571L264.734 139.568L264.735 139.566V139.564C264.736 139.561 264.737 139.558 264.738 139.554C264.745 139.527 264.757 139.477 264.771 139.41C264.798 139.273 264.832 139.067 264.852 138.818C264.893 138.303 264.866 137.684 264.666 137.109C264.478 136.569 264.13 136.036 263.438 135.611C262.716 135.168 261.491 134.765 259.433 134.765H185.006V529.975C185.006 534.015 185.048 536.66 184.448 538.774C183.798 541.068 182.44 542.651 180.278 544.813C180.167 544.925 180.041 545.022 179.904 545.101L66.8047 610.477H652.605L652.675 610.478C653.365 610.504 654.053 610.387 654.694 610.133C655.336 609.879 655.919 609.494 656.404 609.003C656.89 608.512 657.269 607.925 657.516 607.281C657.762 606.636 657.872 605.947 657.838 605.257C657.837 605.228 657.836 605.198 657.836 605.168V140.075C657.836 139.993 657.842 139.912 657.853 139.831C657.945 139.148 657.88 138.451 657.661 137.796C657.442 137.142 657.076 136.546 656.591 136.055C656.106 135.565 655.513 135.192 654.861 134.966ZM19.335 134.765C18.6437 134.758 17.9577 134.891 17.3184 135.154C16.6791 135.417 16.0993 135.806 15.6133 136.297C15.1273 136.789 14.7451 137.373 14.4893 138.015C14.2334 138.657 14.1092 139.344 14.124 140.036V605.207C14.1093 605.898 14.2335 606.586 14.4893 607.228C14.7452 607.87 15.1274 608.454 15.6133 608.946C16.0992 609.437 16.6792 609.826 17.3184 610.089C17.9576 610.352 18.6439 610.484 19.335 610.477H57.5342L171.223 542.093C174.952 538.351 176.327 536.521 176.919 534.778C177.215 533.907 177.342 532.975 177.383 531.684C177.426 530.34 177.375 528.827 177.375 526.652V134.765L19.3535 134.766C19.3475 134.766 19.341 134.765 19.335 134.765ZM842.898 22.601C842.72 22.7984 842.525 22.9855 842.314 23.1556V526.652C842.314 528.657 842.365 530.39 842.32 531.8C842.274 533.264 842.123 534.596 841.665 535.945C840.81 538.461 838.97 540.737 835.587 544.166L839.189 542.084C840.995 540.264 841.734 539.253 842.144 537.895C842.609 536.35 842.693 534.236 842.693 529.975V23.4398C842.693 23.1452 842.765 22.8576 842.898 22.601ZM181.001 134.765V526.652C181.001 528.657 181.051 530.39 181.006 531.8C180.959 533.264 180.81 534.596 180.352 535.945C179.496 538.46 177.658 540.737 174.275 544.165L177.876 542.084C179.882 540.064 180.596 539.07 180.961 537.785C181.386 536.284 181.38 534.297 181.38 529.975V134.765H181.001ZM185.006 131.14H259.433C261.939 131.14 263.878 131.627 265.333 132.52C266.817 133.43 267.659 134.678 268.091 135.918C268.51 137.123 268.531 138.286 268.466 139.106C268.433 139.523 268.375 139.875 268.324 140.127C268.312 140.186 268.299 140.239 268.288 140.287V161.78C268.288 161.857 268.283 161.936 268.273 162.013C268.185 162.697 268.253 163.394 268.474 164.047C268.694 164.701 269.061 165.296 269.546 165.787C270.031 166.277 270.622 166.65 271.273 166.878C271.925 167.106 272.62 167.183 273.305 167.102L273.518 167.089H412.182L412.339 167.096C413.026 167.156 413.718 167.063 414.365 166.826C415.013 166.588 415.6 166.21 416.085 165.719C416.57 165.229 416.941 164.637 417.172 163.988C417.402 163.338 417.487 162.644 417.42 161.957C417.414 161.899 417.411 161.84 417.411 161.781V140.063L419.224 140.075C417.516 140.063 417.417 140.062 417.411 140.061V140.044C417.411 140.036 417.412 140.026 417.412 140.015C417.413 139.992 417.413 139.963 417.414 139.927C417.417 139.855 417.422 139.757 417.431 139.637C417.448 139.398 417.481 139.065 417.545 138.672C417.671 137.895 417.923 136.829 418.437 135.741C418.952 134.648 419.757 133.481 421.008 132.589C422.277 131.685 423.898 131.14 425.9 131.14H652.526C653.715 131.014 654.918 131.149 656.049 131.54C657.225 131.948 658.293 132.621 659.169 133.506C660.044 134.392 660.705 135.467 661.1 136.648C661.328 137.331 661.46 138.04 661.501 138.754V129.93H185.006V131.14ZM181.001 131.14H181.38V129.93H181.001V131.14ZM10.459 126.304H177.375V102.538H10.459V126.304ZM181.001 126.304H181.38V102.538H181.001V126.304ZM185.006 126.304H661.5V102.538H185.006V126.304ZM178.176 5.64198C178.062 5.75532 177.934 5.85328 177.795 5.93299L15.4619 98.9115H177.375V23.5609C177.221 23.4728 177.073 23.3717 176.934 23.2592C176.253 22.7103 175.799 21.9304 175.492 21.139C175.178 20.3262 174.966 19.3673 174.853 18.306L174.854 18.3051C174.396 14.2174 175.29 10.092 177.399 6.56092C177.445 6.48507 177.496 6.41257 177.552 6.34412C177.777 6.06897 178.03 5.80492 178.312 5.57069C178.313 5.55018 178.313 5.52967 178.313 5.50916C178.268 5.55279 178.222 5.59616 178.176 5.64198ZM181.583 22.6058C181.405 22.8023 181.211 22.9883 181.001 23.1576V98.9115H181.38V23.4398C181.38 23.147 181.451 22.8612 181.583 22.6058ZM186.544 3.9203C187.133 4.98988 187.566 6.19301 187.866 7.39491C188.563 10.1816 188.699 13.4734 188.203 16.5424C187.755 19.3133 186.758 22.0902 185.006 24.141V98.9115H662.829L826.905 4.06776L186.544 3.9203ZM834.178 4.05506L734.898 61.4408L835.137 4.02869C834.83 4.03765 834.51 4.04456 834.178 4.05506ZM843.251 4.05994C843.256 4.39364 843.258 4.7273 843.257 5.06092C843.446 5.16139 843.627 5.27984 843.795 5.41639C844.475 5.96787 844.926 6.74904 845.229 7.53846C845.542 8.34941 845.751 9.3038 845.864 10.3568H845.863C846.34 14.4324 845.444 18.5496 843.317 22.058C844.611 20.7049 845.522 18.5358 845.938 15.9642C846.358 13.3581 846.235 10.5632 845.663 8.27479C845.065 5.88398 844.102 4.5094 843.251 4.05994ZM181.938 4.05994C181.943 4.393 181.945 4.726 181.943 5.05897C182.134 5.15977 182.315 5.27911 182.484 5.41639C183.164 5.96787 183.616 6.74905 183.92 7.53846C184.232 8.34934 184.441 9.30394 184.554 10.3568H184.553C185.029 14.4291 184.134 18.5427 182.012 22.0492C183.302 20.6955 184.209 18.5306 184.624 15.9642C185.045 13.3581 184.922 10.5632 184.35 8.27479C183.752 5.88362 182.789 4.50919 181.938 4.05994Z" fill="black"/>
<path d="M347 196.439C356.07 196.439 363.423 189.085 363.423 180.014C363.423 170.943 356.07 163.59 347 163.59C337.93 163.59 330.577 170.943 330.577 180.014C330.577 189.085 337.93 196.439 347 196.439Z" stroke="black" stroke-width="3.62566" stroke-linecap="round" stroke-linejoin="round"/>
</svg>
