<svg width="1086" height="644" viewBox="0 0 1086 644" fill="none" xmlns="http://www.w3.org/2000/svg">
<path d="M172.163 543.5C179.806 535.857 179.001 534.983 179.001 526.62V14.6384C179.806 10.5027 180.098 6.28343 179.871 2.07619C179.871 2.07619 177.592 2.0491 172.165 2.22652L1.81287 100.695V641.969H8.45943L172.163 543.5Z" fill="white" stroke="black" stroke-width="3.62566" stroke-linecap="round" stroke-linejoin="round"/>
<path d="M178.81 543.5C183.102 539.208 183.006 538.306 183.006 529.944V23.4089C189.87 16.5443 186.015 -4.97901 176.706 4.32926L8.45935 100.695V641.969L178.81 543.5Z" fill="white" stroke="black" stroke-width="3.62566" stroke-linecap="round" stroke-linejoin="round"/>
<path d="M180.236 21.1452C178.581 23.2278 176.875 21.8766 176.468 18.0822C176.052 14.3853 176.861 10.6541 178.769 7.46052C180.477 5.36924 182.159 6.75277 182.563 10.5201C183.001 14.2226 182.181 17.9645 180.236 21.1452Z" stroke="black" stroke-width="3.62566" stroke-linecap="round" stroke-linejoin="round"/>
<path d="M1.81287 100.695H8.45943" stroke="black" stroke-width="3.62566" stroke-linecap="round" stroke-linejoin="round"/>
<path d="M1069.48 543.5C1077.12 535.857 1076.31 534.983 1076.31 526.62V14.6384C1077.12 10.5027 1077.41 6.28343 1077.18 2.07619C1077.18 2.07619 1074.91 2.0491 1069.48 2.22652L899.126 100.695V641.969H905.772L1069.48 543.5Z" fill="white" stroke="black" stroke-width="3.62566" stroke-linecap="round" stroke-linejoin="round"/>
<path d="M1076.12 543.5C1080.05 539.578 1080.32 538.306 1080.32 529.944V23.4089C1087.18 16.5443 1083.33 -4.97901 1074.02 4.32926L905.772 100.694V641.969L1076.12 543.5Z" fill="white" stroke="black" stroke-width="3.62566" stroke-linecap="round" stroke-linejoin="round"/>
<path d="M1077.55 21.1452C1075.89 23.2278 1074.19 21.8766 1073.78 18.0822C1073.36 14.3853 1074.17 10.6541 1076.08 7.46052C1077.79 5.36924 1079.47 6.75277 1079.87 10.5201C1080.31 14.2226 1079.49 17.9645 1077.55 21.1452Z" stroke="black" stroke-width="3.62566" stroke-linecap="round" stroke-linejoin="round"/>
<path d="M899.126 100.695H905.772" stroke="black" stroke-width="3.62566" stroke-linecap="round" stroke-linejoin="round"/>
<path d="M899.126 100.694L1069.47 2.22554L179.419 2.07568L8.45691 100.694H899.126Z" fill="white" stroke="black" stroke-width="3.62566" stroke-linecap="round" stroke-linejoin="round"/>
<path d="M899.126 128.086H8.45935V614.578H899.126V128.086Z" fill="#1A1A1A"/>
<path d="M899.126 100.695H8.45935V128.086H899.126V100.695Z" fill="white" stroke="black" stroke-width="3.62566" stroke-linecap="round" stroke-linejoin="round"/>
<path d="M899.126 614.578H8.45935V641.969H899.126V614.578Z" fill="white" stroke="black" stroke-width="3.62566" stroke-linecap="round" stroke-linejoin="round"/>
<path d="M519.994 168.871H391.33C390.371 168.984 389.399 168.877 388.487 168.558C387.575 168.239 386.749 167.717 386.069 167.03C385.39 166.343 384.877 165.51 384.568 164.595C384.259 163.68 384.163 162.707 384.288 161.749V140.043C384.288 140.043 386.377 132.921 377.245 132.921H19.1662C18.2319 132.912 17.3053 133.09 16.4413 133.446C15.5774 133.801 14.7936 134.327 14.1367 134.991C13.4798 135.655 12.9631 136.445 12.6173 137.313C12.2715 138.181 12.1036 139.109 12.1237 140.043V605.137C12.1036 606.071 12.2715 606.999 12.6173 607.867C12.9631 608.735 13.4798 609.525 14.1367 610.189C14.7936 610.853 15.5774 611.379 16.4413 611.734C17.3053 612.09 18.2319 612.268 19.1662 612.259H888.418C889.359 612.294 890.298 612.134 891.174 611.788C892.049 611.441 892.844 610.917 893.506 610.247C894.168 609.577 894.684 608.777 895.021 607.897C895.357 607.018 895.507 606.078 895.461 605.137V140.044C895.591 139.085 895.499 138.109 895.193 137.191C894.886 136.273 894.373 135.438 893.692 134.75C893.012 134.062 892.182 133.539 891.268 133.222C890.353 132.905 889.378 132.802 888.418 132.922H533.713C527.083 132.922 527.036 140.044 527.036 140.044V161.749C527.13 162.701 527.012 163.661 526.693 164.562C526.373 165.463 525.859 166.283 525.187 166.963C524.514 167.642 523.701 168.166 522.803 168.496C521.906 168.825 520.947 168.953 519.994 168.871Z" fill="white" stroke="black" stroke-width="3.62566" stroke-linecap="round" stroke-linejoin="round"/>
</svg>
