<svg xmlns="http://www.w3.org/2000/svg" width="1165" height="706" viewBox="26.82 71.43 228.53 138.37"><title>cab-fdd</title><path d="M250.6774,186.4256c1.5811-1.5812,1.4145-1.762,1.4145-3.4918V77.0257a10.5973,10.5973,0,0,0,.18-2.5986s-.4714-.0056-1.5941.0311L215.4389,94.8273V206.7947h1.3749Z" style="fill:#fff;stroke:#000;stroke-linecap:round;stroke-linejoin:round;stroke-width:0.75px"/><path d="M252.0523,186.4256c.8114-.8114.868-1.0745.868-2.8043V78.84c1.42-1.42.6224-5.8723-1.3031-3.9468l-34.8034,19.934V206.7947Z" style="fill:#fff;stroke:#000;stroke-linecap:round;stroke-linejoin:round;stroke-width:0.75px"/><path d="M252.3468,78.3717c-.3423.4308-.6952.1513-.7794-.6336a3.5176,3.5176,0,0,1,.4759-2.1972c.3534-.4326.7014-.1464.785.6329A3.44,3.44,0,0,1,252.3468,78.3717Z" style="fill:none;stroke:#000;stroke-linecap:round;stroke-linejoin:round;stroke-width:0.75px"/><line x1="215.4389" y1="94.8273" x2="216.8138" y2="94.8273" style="fill:#fff;stroke:#000;stroke-linecap:round;stroke-linejoin:round;stroke-width:0.75px"/><path d="M65.06,186.4256c1.5811-1.5812,1.4145-1.762,1.4145-3.4918V77.0257a10.5973,10.5973,0,0,0,.18-2.5986s-.4714-.0056-1.5941.0311L29.8216,94.8273V206.7947h1.3749Z" style="fill:#fff;stroke:#000;stroke-linecap:round;stroke-linejoin:round;stroke-width:0.75px"/><path d="M66.435,186.4256c.888-.888.868-1.0745.868-2.8043V78.84c1.42-1.42.6224-5.8723-1.3031-3.9468L31.1965,94.8273V206.7947Z" style="fill:#fff;stroke:#000;stroke-linecap:round;stroke-linejoin:round;stroke-width:0.75px"/><path d="M66.73,78.3717c-.3423.4308-.6952.1513-.7794-.6336a3.5176,3.5176,0,0,1,.4759-2.1972c.3534-.4326.7014-.1464.785.6329A3.44,3.44,0,0,1,66.73,78.3717Z" style="fill:none;stroke:#000;stroke-linecap:round;stroke-linejoin:round;stroke-width:0.75px"/><line x1="29.8216" y1="94.8273" x2="31.1965" y2="94.8273" style="fill:#fff;stroke:#000;stroke-linecap:round;stroke-linejoin:round;stroke-width:0.75px"/><polygon points="215.439 94.827 250.677 74.458 66.561 74.427 31.196 94.827 215.439 94.827" style="fill:#fff;stroke:#000;stroke-linecap:round;stroke-linejoin:round;stroke-width:0.75px"/><rect x="31.4752" y="100.4934" width="183.685" height="100.6352" style="fill:#fff"/><rect x="31.1965" y="94.8273" width="184.2424" height="5.6661" style="fill:#fff;stroke:#000;stroke-linecap:round;stroke-linejoin:round;stroke-width:0.75px"/><circle cx="123.4434" cy="112.0654" r="3.3972" style="fill:none;stroke:#000;stroke-linecap:round;stroke-linejoin:round;stroke-width:0.75px"/><rect x="31.1965" y="201.1286" width="184.2424" height="5.6661" style="fill:#fff;stroke:#000;stroke-linecap:round;stroke-linejoin:round;stroke-width:0.75px"/><path d="M197.02,118.134s-10.5374-1.6548-19.0058,8.9914c-5.8413,7.3436-5.6349,12.7024-5.6349,12.7024h-6.1124l10.0282,10.9832,9.8372-10.9832h-6.0169a21.155,21.155,0,0,1,3.9157-12.9889C188.9448,119.9879,197.02,118.134,197.02,118.134Z" style="fill:#4d4d4d"/></svg>