<svg xmlns="http://www.w3.org/2000/svg" width="852" height="516" viewBox="26.82 71.43 228.53 138.37"><title>cab-3d</title><path d="M65.06,186.4256c1.5811-1.5812,1.4145-1.762,1.4145-3.4918V77.0257a10.5973,10.5973,0,0,0,.18-2.5986s-.4714-.0056-1.5941.0311L29.8216,94.8273V206.7947h1.3749Z" style="fill:#fff;stroke:#000;stroke-linecap:round;stroke-linejoin:round;stroke-width:0.75px"/><path d="M66.435,186.4256c.888-.888.868-1.0745.868-2.8043V78.84c1.42-1.42.6224-5.8723-1.3031-3.9468L31.1965,94.8273V206.7947Z" style="fill:#fff;stroke:#000;stroke-linecap:round;stroke-linejoin:round;stroke-width:0.75px"/><path d="M66.73,78.3717c-.3423.4308-.6952.1513-.7794-.6336a3.5176,3.5176,0,0,1,.4759-2.1972c.3534-.4326.7014-.1464.785.6329A3.44,3.44,0,0,1,66.73,78.3717Z" style="fill:none;stroke:#000;stroke-linecap:round;stroke-linejoin:round;stroke-width:0.75px"/><line x1="29.8216" y1="94.8273" x2="31.1965" y2="94.8273" style="fill:#fff;stroke:#000;stroke-linecap:round;stroke-linejoin:round;stroke-width:0.75px"/><path d="M250.6774,186.4256c1.5811-1.5812,1.4145-1.762,1.4145-3.4918V77.0257a10.5973,10.5973,0,0,0,.18-2.5986s-.4714-.0056-1.5941.0311L215.4389,94.8273V206.7947h1.3749Z" style="fill:#fff;stroke:#000;stroke-linecap:round;stroke-linejoin:round;stroke-width:0.75px"/><path d="M252.0523,186.4256c.8114-.8114.868-1.0745.868-2.8043V78.84c1.42-1.42.6224-5.8723-1.3031-3.9468l-34.8034,19.934V206.7947Z" style="fill:#fff;stroke:#000;stroke-linecap:round;stroke-linejoin:round;stroke-width:0.75px"/><path d="M252.3468,78.3717c-.3423.4308-.6952.1513-.7794-.6336a3.5176,3.5176,0,0,1,.4759-2.1972c.3534-.4326.7014-.1464.785.6329A3.44,3.44,0,0,1,252.3468,78.3717Z" style="fill:none;stroke:#000;stroke-linecap:round;stroke-linejoin:round;stroke-width:0.75px"/><line x1="215.4389" y1="94.8273" x2="216.8138" y2="94.8273" style="fill:#fff;stroke:#000;stroke-linecap:round;stroke-linejoin:round;stroke-width:0.75px"/><polygon points="215.439 94.827 250.677 74.458 66.561 74.427 31.196 94.827 215.439 94.827" style="fill:#fff;stroke:#000;stroke-linecap:round;stroke-linejoin:round;stroke-width:0.75px"/><rect x="31.1965" y="100.4934" width="184.2424" height="100.6352" style="fill:#1a1a1a"/><rect x="31.1965" y="94.8273" width="184.2424" height="5.6661" style="fill:#fff;stroke:#000;stroke-linecap:round;stroke-linejoin:round;stroke-width:0.75px"/><rect x="31.1965" y="201.1286" width="184.2424" height="5.6661" style="fill:#fff;stroke:#000;stroke-linecap:round;stroke-linejoin:round;stroke-width:0.75px"/><path d="M136.84,109.4306H110.43a1.3575,1.3575,0,0,1-1.4458-1.5449v-4.7083s.4237-1.5449-1.4482-1.5449H33.4c-1.4407,0-1.4483,1.5449-1.4483,1.5449V131.853s.0076,1.5454,1.4483,1.5454H213.0529a1.4522,1.4522,0,0,0,1.4457-1.5454V103.1774c0-1.7271-1.4457-1.5449-1.4457-1.5449H139.6567c-1.3609,0-1.3706,1.5449-1.3706,1.5449v4.7083A1.39,1.39,0,0,1,136.84,109.4306Z" style="fill:#fff"/><path d="M136.84,143.2138H110.43a1.3575,1.3575,0,0,1-1.4458-1.5449v-4.7082s.4237-1.5449-1.4482-1.5449H33.4c-1.4407,0-1.4483,1.5449-1.4483,1.5449v28.6755s.0076,1.5454,1.4483,1.5454H213.0529a1.4522,1.4522,0,0,0,1.4457-1.5454V136.9607c0-1.7271-1.4457-1.5449-1.4457-1.5449H139.6567c-1.3609,0-1.3706,1.5449-1.3706,1.5449v4.7082A1.39,1.39,0,0,1,136.84,143.2138Z" style="fill:#fff"/><path d="M136.84,176.7851H110.43a1.3315,1.3315,0,0,1-1.4458-1.5056V170.691s.4237-1.5056-1.4482-1.5056H33.4a1.4644,1.4644,0,0,0-1.4483,1.5056v27.9464A1.4648,1.4648,0,0,0,33.4,200.1436H213.0529a1.4247,1.4247,0,0,0,1.4457-1.5062V170.691c0-1.6832-1.4457-1.5056-1.4457-1.5056H139.6567c-1.3609,0-1.3706,1.5056-1.3706,1.5056V175.28A1.3631,1.3631,0,0,1,136.84,176.7851Z" style="fill:#fff"/></svg>