<svg xmlns="http://www.w3.org/2000/svg" width="852" height="516" viewBox="26.82 71.43 228.53 138.37"><title>cab-2d</title><path d="M65.06,186.4256c1.5811-1.5812,1.4145-1.762,1.4145-3.4918V77.0257a10.5973,10.5973,0,0,0,.18-2.5986s-.4714-.0056-1.5941.0311L29.8216,94.8273V206.7947h1.3749Z" style="fill:#fff;stroke:#000;stroke-linecap:round;stroke-linejoin:round;stroke-width:0.75px"/><path d="M66.435,186.4256c.888-.888.868-1.0745.868-2.8043V78.84c1.42-1.42.6224-5.8723-1.3031-3.9468L31.1965,94.8273V206.7947Z" style="fill:#fff;stroke:#000;stroke-linecap:round;stroke-linejoin:round;stroke-width:0.75px"/><path d="M66.73,78.3717c-.3423.4308-.6952.1513-.7794-.6336a3.5176,3.5176,0,0,1,.4759-2.1972c.3534-.4326.7014-.1464.785.6329A3.44,3.44,0,0,1,66.73,78.3717Z" style="fill:none;stroke:#000;stroke-linecap:round;stroke-linejoin:round;stroke-width:0.75px"/><line x1="29.8216" y1="94.8273" x2="31.1965" y2="94.8273" style="fill:#fff;stroke:#000;stroke-linecap:round;stroke-linejoin:round;stroke-width:0.75px"/><path d="M250.6774,186.4256c1.5811-1.5812,1.4145-1.762,1.4145-3.4918V77.0257a10.5973,10.5973,0,0,0,.18-2.5986s-.4714-.0056-1.5941.0311L215.4389,94.8273V206.7947h1.3749Z" style="fill:#fff;stroke:#000;stroke-linecap:round;stroke-linejoin:round;stroke-width:0.75px"/><path d="M252.0523,186.4256c.8114-.8114.868-1.0745.868-2.8043V78.84c1.42-1.42.6224-5.8723-1.3031-3.9468l-34.8034,19.934V206.7947Z" style="fill:#fff;stroke:#000;stroke-linecap:round;stroke-linejoin:round;stroke-width:0.75px"/><path d="M252.3468,78.3717c-.3423.4308-.6952.1513-.7794-.6336a3.5176,3.5176,0,0,1,.4759-2.1972c.3534-.4326.7014-.1464.785.6329A3.44,3.44,0,0,1,252.3468,78.3717Z" style="fill:none;stroke:#000;stroke-linecap:round;stroke-linejoin:round;stroke-width:0.75px"/><line x1="215.4389" y1="94.8273" x2="216.8138" y2="94.8273" style="fill:#fff;stroke:#000;stroke-linecap:round;stroke-linejoin:round;stroke-width:0.75px"/><polygon points="215.439 94.827 250.677 74.458 66.561 74.427 31.196 94.827 215.439 94.827" style="fill:#fff;stroke:#000;stroke-linecap:round;stroke-linejoin:round;stroke-width:0.75px"/><rect x="31.1965" y="100.4934" width="184.2424" height="100.6352" style="fill:#1a1a1a"/><rect x="31.1965" y="94.8273" width="184.2424" height="5.6661" style="fill:#fff;stroke:#000;stroke-linecap:round;stroke-linejoin:round;stroke-width:0.75px"/><rect x="31.1965" y="201.1286" width="184.2424" height="5.6661" style="fill:#fff;stroke:#000;stroke-linecap:round;stroke-linejoin:round;stroke-width:0.75px"/><path d="M136.54,109.4425H110.1749a1.3114,1.3114,0,0,1-1.4458-1.4744v-4.494S109.1546,102,107.2858,102H33.6268a1.4407,1.4407,0,0,0-1.4433,1.4743v44.8775a1.4408,1.4408,0,0,0,1.4433,1.4744H213.0085a1.4059,1.4059,0,0,0,1.4433-1.4744V103.4741A1.2989,1.2989,0,0,0,213.0085,102H139.35c-1.3587,0-1.3664,1.4743-1.3664,1.4743v4.494A1.3414,1.3414,0,0,1,136.54,109.4425Z" style="fill:#fff"/><path d="M136.54,159.4963H110.1749a1.3114,1.3114,0,0,1-1.4458-1.4744v-4.4892s.4255-1.48-1.4433-1.48H33.6268a1.4444,1.4444,0,0,0-1.4433,1.48v44.9181a1.4408,1.4408,0,0,0,1.4433,1.4744H213.0085a1.4059,1.4059,0,0,0,1.4433-1.4744V153.5327a1.3011,1.3011,0,0,0-1.4433-1.48H139.35c-1.3587,0-1.3664,1.48-1.3664,1.48v4.4892A1.3414,1.3414,0,0,1,136.54,159.4963Z" style="fill:#fff"/></svg>