<svg xmlns="http://www.w3.org/2000/svg" width="1165" height="706" viewBox="26.01 71.43 228.53 138.37"><title>cab-uo</title><path d="M64.2514,186.4256c1.5812-1.5812,1.4146-1.762,1.4146-3.4918V77.0257a10.6026,10.6026,0,0,0,.18-2.5986s-.4714-.0056-1.5942.0311L29.0129,94.8273V206.7947h1.3749Z" style="fill:#fff;stroke:#000;stroke-linecap:round;stroke-linejoin:round;stroke-width:0.75px"/><path d="M65.6263,186.4256c.888-.888.8681-1.0745.8681-2.8043V78.84c1.42-1.42.6223-5.8723-1.3032-3.9468L30.3878,94.8273V206.7947Z" style="fill:#fff;stroke:#000;stroke-linecap:round;stroke-linejoin:round;stroke-width:0.75px"/><path d="M65.9209,78.3717c-.3424.4308-.6953.1513-.7794-.6336a3.5176,3.5176,0,0,1,.4759-2.1972c.3533-.4326.7014-.1464.7849.6329A3.44,3.44,0,0,1,65.9209,78.3717Z" style="fill:none;stroke:#000;stroke-linecap:round;stroke-linejoin:round;stroke-width:0.75px"/><line x1="29.0129" y1="94.8273" x2="30.3878" y2="94.8273" style="fill:#fff;stroke:#000;stroke-linecap:round;stroke-linejoin:round;stroke-width:0.75px"/><rect x="30.6393" y="100.4934" width="183.9909" height="100.6352" style="fill:#fff"/><path d="M249.8687,186.4256c1.5812-1.5812,1.4146-1.762,1.4146-3.4918V77.0257a10.6026,10.6026,0,0,0,.18-2.5986s-.4714-.0056-1.5942.0311L214.63,94.8273V206.7947h1.3749Z" style="fill:#fff;stroke:#000;stroke-linecap:round;stroke-linejoin:round;stroke-width:0.75px"/><path d="M251.2436,186.4256c.8115-.8114.8681-1.0745.8681-2.8043V78.84c1.42-1.42.6223-5.8723-1.3032-3.9468l-34.8034,19.934V206.7947Z" style="fill:#fff;stroke:#000;stroke-linecap:round;stroke-linejoin:round;stroke-width:0.75px"/><path d="M251.5382,78.3717c-.3424.4308-.6953.1513-.7794-.6336a3.517,3.517,0,0,1,.4759-2.1972c.3533-.4326.7014-.1464.7849.6329A3.44,3.44,0,0,1,251.5382,78.3717Z" style="fill:none;stroke:#000;stroke-linecap:round;stroke-linejoin:round;stroke-width:0.75px"/><line x1="214.6302" y1="94.8273" x2="216.0051" y2="94.8273" style="fill:#fff;stroke:#000;stroke-linecap:round;stroke-linejoin:round;stroke-width:0.75px"/><polygon points="214.63 94.827 249.869 74.458 65.752 74.427 30.388 94.827 214.63 94.827" style="fill:#fff;stroke:#000;stroke-linecap:round;stroke-linejoin:round;stroke-width:0.75px"/><rect x="30.3878" y="94.8273" width="184.2424" height="5.6661" style="fill:#fff;stroke:#000;stroke-linecap:round;stroke-linejoin:round;stroke-width:0.75px"/><rect x="30.3878" y="201.1286" width="184.2424" height="5.6661" style="fill:#fff;stroke:#000;stroke-linecap:round;stroke-linejoin:round;stroke-width:0.75px"/><rect x="30.3878" y="183.2843" width="184.2424" height="11.279" style="fill:none;stroke:#000;stroke-linecap:round;stroke-linejoin:round;stroke-width:0.75px"/><path d="M196.4289,150.718s-10.5374,1.6548-19.0058-8.9915c-5.8413-7.3435-5.6349-12.7023-5.6349-12.7023h-6.1124L175.704,118.041l9.8372,10.9832h-6.0169a21.155,21.155,0,0,0,3.9157,12.9889C188.3539,148.864,196.4289,150.718,196.4289,150.718Z" style="fill:#4d4d4d"/></svg>