<svg xmlns="http://www.w3.org/2000/svg" width="1254" height="291" viewBox="18.22 102.44 245.79 56.99"><title>desk-shelf</title><path d="M52.8566,125.258l19.8181-11.6395c.2633-.9585,3.2939-8.756,3.2939-8.756s-.9714-.264-1.4106.1752L39.8929,125.3Z" style="fill:#1a1a1a;stroke:#000;stroke-linecap:round;stroke-linejoin:round;stroke-width:0.75px"/><path d="M75.3289,136.5729c1.1774-1.1794,1.2363-3.6722,1.2363-3.6722a3.3662,3.3662,0,0,0-.3026-1.2433V108.2822a9.6649,9.6649,0,0,0,.3026-1.853s-.0589-2.4212-1.2363-1.2438L41.3185,125.3v31.1311Z" style="fill:#fff;stroke:#000;stroke-linecap:round;stroke-linejoin:round;stroke-width:0.75px"/><rect x="39.8929" y="125.2997" width="1.4256" height="31.1311" style="fill:#1d1d1b;stroke:#000;stroke-linecap:round;stroke-linejoin:round;stroke-width:0.75px"/><path d="M75.2585,108.7043c-.3539.3539-.6413.0664-.6413-.6418a3.13,3.13,0,0,1,.6413-1.927c.3538-.3539.6418-.069.6418.6418A3.1368,3.1368,0,0,1,75.2585,108.7043Z" style="fill:#fff;stroke:#000;stroke-linecap:round;stroke-linejoin:round;stroke-width:0.75px"/><path d="M75.2585,135.3167c-.3539.3539-.6413.0664-.6413-.6418a3.13,3.13,0,0,1,.6413-1.927c.3538-.3539.6418-.069.6418.6418A3.1368,3.1368,0,0,1,75.2585,135.3167Z" style="fill:#fff;stroke:#000;stroke-linecap:round;stroke-linejoin:round;stroke-width:0.75px"/><rect x="41.3185" y="150.8919" width="184.2565" height="5.5388" style="fill:#fff;stroke:#000;stroke-linecap:round;stroke-linejoin:round;stroke-width:0.75px"/><polygon points="225.575 150.892 41.319 150.892 75.259 131.034 259.585 131.034 225.575 150.892" style="fill:#fff;stroke:#000;stroke-linecap:round;stroke-linejoin:round;stroke-width:0.75px"/><polygon points="207.246 141.582 21.217 141.582 75.259 110.979 259.585 110.979 207.246 141.582" style="fill:#fff;stroke:#000;stroke-linecap:round;stroke-linejoin:round;stroke-width:0.75px"/><rect x="21.2173" y="136.0462" width="186.029" height="5.5388" style="fill:#fff;stroke:#000;stroke-linecap:round;stroke-linejoin:round;stroke-width:0.75px"/><polygon points="207.246 136.046 21.217 136.046 75.259 105.443 259.585 105.443 207.246 136.046" style="fill:#fff;stroke:#000;stroke-linecap:round;stroke-linejoin:round;stroke-width:0.75px"/><path d="M238.5387,125.258l19.8181-11.6395c.2633-.9585,3.2939-8.756,3.2939-8.756s-.9714-.264-1.4106.1752L225.5751,125.3Z" style="fill:#1a1a1a;stroke:#000;stroke-linecap:round;stroke-linejoin:round;stroke-width:0.75px"/><path d="M261.011,136.5729c1.1774-1.1794,1.2363-3.6722,1.2363-3.6722a3.3675,3.3675,0,0,0-.3025-1.2433V108.2822a9.6692,9.6692,0,0,0,.3025-1.853s-.0589-2.4212-1.2363-1.2438L227.0006,125.3v31.1311Z" style="fill:#fff;stroke:#000;stroke-linecap:round;stroke-linejoin:round;stroke-width:0.75px"/><path d="M229.3706,127.4351c-.32.3191-.58.0589-.58-.58a2.8159,2.8159,0,0,1,.58-1.7327c.3171-.32.5774-.0614.5774.5774A2.8332,2.8332,0,0,1,229.3706,127.4351Z"/><path d="M248.5281,116.0665c-.32.32-.5779.0614-.5779-.5773a2.81,2.81,0,0,1,.5779-1.7332c.3191-.3191.5774-.0614.5774.5779A2.812,2.812,0,0,1,248.5281,116.0665Z"/><path d="M238.9484,121.75c-.3192.32-.5774.0614-.5774-.5774a2.8177,2.8177,0,0,1,.5774-1.7331c.32-.3192.5778-.0614.5778.5779A2.8124,2.8124,0,0,1,238.9484,121.75Z"/><path d="M258.1068,110.3834c-.32.3191-.5773.0614-.5773-.5779a2.8151,2.8151,0,0,1,.5773-1.7327c.32-.32.5779-.0614.5779.5774A2.8038,2.8038,0,0,1,258.1068,110.3834Z"/><path d="M229.3706,154.1733c-.32.3191-.58.0589-.58-.58a2.8159,2.8159,0,0,1,.58-1.7327c.3171-.32.5774-.0614.5774.5774A2.8332,2.8332,0,0,1,229.3706,154.1733Z"/><path d="M248.5281,142.8047c-.32.32-.5779.0615-.5779-.5773a2.81,2.81,0,0,1,.5779-1.7332c.3191-.3191.5774-.0614.5774.5779A2.812,2.812,0,0,1,248.5281,142.8047Z"/><path d="M238.9484,148.4881c-.3192.32-.5774.0614-.5774-.5774a2.8177,2.8177,0,0,1,.5774-1.7331c.32-.3192.5778-.0614.5778.5779A2.8124,2.8124,0,0,1,238.9484,148.4881Z"/><path d="M258.1068,137.1216c-.32.3191-.5773.0614-.5773-.5779a2.8151,2.8151,0,0,1,.5773-1.7327c.32-.32.5779-.0614.5779.5774A2.8036,2.8036,0,0,1,258.1068,137.1216Z"/><rect x="225.5751" y="125.2997" width="1.4256" height="31.1311" style="fill:#1d1d1b;stroke:#000;stroke-linecap:round;stroke-linejoin:round;stroke-width:0.75px"/><path d="M260.9406,108.7043c-.3539.3539-.6413.0664-.6413-.6418a3.13,3.13,0,0,1,.6413-1.927c.3539-.3539.6418-.069.6418.6418A3.1362,3.1362,0,0,1,260.9406,108.7043Z" style="fill:#fff;stroke:#000;stroke-linecap:round;stroke-linejoin:round;stroke-width:0.75px"/><path d="M260.9406,135.3167c-.3539.3539-.6413.0664-.6413-.6418a3.13,3.13,0,0,1,.6413-1.927c.3539-.3539.6418-.069.6418.6418A3.1362,3.1362,0,0,1,260.9406,135.3167Z" style="fill:#fff;stroke:#000;stroke-linecap:round;stroke-linejoin:round;stroke-width:0.75px"/></svg>