<svg width="35" height="570" viewBox="0 0 35 570" fill="none" xmlns="http://www.w3.org/2000/svg">
<g clip-path="url(#clip0_1_57)">
<path d="M29.9574 557.261V1.94193L21.321 12.3051V567.624L29.9574 557.261Z" fill="white" stroke="black" stroke-width="2.15909" stroke-linejoin="round"/>
<path d="M1.02588 11.4428V566.761H11.3902V11.4428" fill="white"/>
<path d="M1.02588 11.4428V566.761H11.3902V11.4428" stroke="black" stroke-width="2.15909" stroke-linecap="round" stroke-linejoin="bevel"/>
<path d="M4.74418 45.8132H16.8343L16.8342 31.9952L4.74414 31.9953L4.74418 45.8132Z" fill="white"/>
<path d="M4.08426 186.798H16.1765L16.1764 172.979H4.08423L4.08426 186.798Z" fill="white"/>
<path d="M4.53959 465.337H16.6317V451.519H4.53955L4.53959 465.337Z" fill="white"/>
<path d="M1.45801 9.71591L11.8223 1.07954H30.8219" fill="white"/>
<path d="M1.45801 9.71591L11.8223 1.07954H30.8219" stroke="black" stroke-width="2.15909" stroke-linejoin="round"/>
<path d="M19.5922 1.07954L10.9558 9.71591" stroke="black" stroke-width="2.15909" stroke-linejoin="round"/>
</g>
<defs>
<clipPath id="clip0_1_57">
<rect width="35" height="570" fill="white"/>
</clipPath>
</defs>
</svg>
