<svg width="35" height="1710" viewBox="0 0 35 1710" fill="none" xmlns="http://www.w3.org/2000/svg">
<g clip-path="url(#clip0_1_108)">
<path d="M30.6351 1692.9V1.31451L21.8658 11.8393V1703.42L30.6351 1692.9Z" fill="white" stroke="black" stroke-width="2.19231" stroke-linecap="round" stroke-linejoin="bevel"/>
<path d="M3.01279 10.9615L1.2583 1704.3H11.7821V10.9615" fill="white"/>
<path d="M3.01279 10.9615L1.2583 1704.3H11.7821V10.9615" stroke="black" stroke-width="2.19231" stroke-linecap="round" stroke-linejoin="round"/>
<path d="M4.25248 1318.59H16.5307V1304.56H4.25244L4.25248 1318.59Z" fill="white"/>
<path d="M4.70634 1601.41H16.9846L16.9845 1587.38H4.7063L4.70634 1601.41Z" fill="white"/>
<path d="M4.2139 754.689H16.4921V740.659H4.21387L4.2139 754.689Z" fill="white"/>
<path d="M4.66996 1037.51H16.946V1023.48H4.66992L4.66996 1037.51Z" fill="white"/>
<path d="M4.62711 473.609H16.9032V459.579H4.62708L4.62711 473.609Z" fill="white"/>
<path d="M5.04679 190.787L17.3228 190.786V176.756H5.04675L5.04679 190.787Z" fill="white"/>
<path d="M4.82193 49.3784H17.1001V35.3478L4.8219 35.3479L4.82193 49.3784Z" fill="white"/>
<path d="M2.57288 11.6188L11.3421 1.09613H30.6351" fill="white"/>
<path d="M2.57288 11.6188L11.3421 1.09613H30.6351" stroke="black" stroke-width="2.19231" stroke-linecap="round" stroke-linejoin="round"/>
<path d="M21.8659 2.84955L11.3422 11.6188" stroke="black" stroke-width="2.19231" stroke-linejoin="round"/>
</g>
<defs>
<clipPath id="clip0_1_108">
<rect width="35" height="1710" fill="white"/>
</clipPath>
</defs>
</svg>
