<svg width="35" height="2000" viewBox="0 0 35 2000" fill="none" xmlns="http://www.w3.org/2000/svg">
<path d="M32.6764 1980.04V1.09644L22.1494 11.6223V1990.57L32.6764 1980.04Z" stroke="black" stroke-width="2.19298" stroke-linejoin="round"/>
<path d="M1.31604 9.86841V1992.32H11.843V9.86841" stroke="black" stroke-width="2.19298" stroke-linecap="round"/>
<path d="M11.8451 13.3784V1992.32H22.371V13.3784" stroke="black" stroke-width="2.19298"/>
<path d="M11.578 1885.31C9.82358 1885.31 8.06897 1883.55 8.06897 1881.8C8.06897 1880.04 9.82358 1878.29 11.578 1878.29C13.3324 1878.29 15.0869 1880.04 15.0869 1881.8C16.8413 1883.55 15.0867 1885.31 11.578 1885.31Z" fill="white" stroke="white" stroke-width="7.89474"/>
<path d="M11.578 1885.31C9.82358 1885.31 8.06897 1883.55 8.06897 1881.8C8.06897 1880.04 9.82358 1878.29 11.578 1878.29C13.3324 1878.29 15.0869 1880.04 15.0869 1881.8C16.8413 1883.55 15.0867 1885.31 11.578 1885.31Z" stroke="black" stroke-width="2.19298"/>
<path d="M11.1154 1602.85C9.36101 1602.85 7.60645 1601.1 7.60645 1599.34C7.60645 1597.59 9.36101 1595.83 11.1154 1595.83C12.8698 1595.83 14.6244 1597.59 14.6244 1599.34C16.3788 1601.1 14.6242 1602.85 11.1154 1602.85Z" fill="white" stroke="white" stroke-width="7.89474"/>
<path d="M11.1154 1602.85C9.36101 1602.85 7.60645 1601.1 7.60645 1599.34C7.60645 1597.59 9.36101 1595.83 11.1154 1595.83C12.8698 1595.83 14.6244 1597.59 14.6244 1599.34C16.3788 1601.1 14.6242 1602.85 11.1154 1602.85Z" stroke="black" stroke-width="2.19298"/>
<path d="M6.5319 1605.61H18.8117V1591.57H6.53186L6.5319 1605.61Z" fill="white"/>
<path d="M6.11002 1888.52H18.392V1874.48H6.10999L6.11002 1888.52Z" fill="white"/>
<path d="M6.49332 1041.54H18.7732L18.7731 1027.5H6.49329L6.49332 1041.54Z" fill="white"/>
<path d="M6.06938 1324.45H18.3492L18.3492 1310.41H6.06934L6.06938 1324.45Z" fill="white"/>
<path d="M6.0308 760.363H18.3106V746.328H6.03076L6.0308 760.363Z" fill="white"/>
<path d="M6.45047 477.455H18.7303V463.421H6.45044L6.45047 477.455Z" fill="white"/>
<path d="M5.99649 194.544H18.2764L18.2763 180.509H5.99646L5.99649 194.544Z" fill="white"/>
<path d="M6.6475 53.092H18.9273V39.0571L6.64746 39.0572L6.6475 53.092Z" fill="white"/>
<path d="M1.09656 9.86837L11.6235 1.09644H32.6764" fill="white"/>
<path d="M1.09656 9.86837L11.6235 1.09644H32.6764" stroke="black" stroke-width="2.19298" stroke-linecap="round" stroke-linejoin="round"/>
<path d="M20.3964 1.09644L11.6245 9.86837" stroke="black" stroke-width="2.19298" stroke-linejoin="round"/>
</svg>
