<svg width="35" height="1140" viewBox="0 0 35 1140" fill="none" xmlns="http://www.w3.org/2000/svg">
<g clip-path="url(#clip0_1_67)">
<path d="M31.1234 1121.07V1.95673L22.4211 12.399V1131.52L31.1234 1121.07Z" fill="white" stroke="black" stroke-width="2.17557" stroke-linejoin="round"/>
<path d="M1.75439 9.79007V1132.39H12.1978V9.79007" fill="white"/>
<path d="M1.75439 9.79007V1132.39H12.1978V9.79007" stroke="black" stroke-width="2.17557" stroke-linecap="round"/>
<path d="M6.40409 749.902H18.5885V735.977H6.40405L6.40409 749.902Z" fill="white"/>
<path d="M6.85453 1030.57H19.039V1016.64H6.85449L6.85453 1030.57Z" fill="white"/>
<path d="M6.36161 190.303H18.5461V176.379H6.36157L6.36161 190.303Z" fill="white"/>
<path d="M7.00321 51.7081L19.1877 51.708V37.7836H7.00317L7.00321 51.7081Z" fill="white"/>
<path d="M6.814 470.969H18.9964L18.9963 457.044H6.81396L6.814 470.969Z" fill="white"/>
<path d="M1.5354 9.79009L11.9788 1.0878H31.1234" fill="white"/>
<path d="M1.5354 9.79009L11.9788 1.0878H31.1234" stroke="black" stroke-width="2.17557" stroke-linecap="round" stroke-linejoin="round"/>
<path d="M20.6832 1.0878L11.981 9.79009" stroke="black" stroke-width="2.17557" stroke-linecap="round" stroke-linejoin="round"/>
</g>
<defs>
<clipPath id="clip0_1_67">
<rect width="35" height="1140" fill="white"/>
</clipPath>
</defs>
</svg>
