<svg width="815" height="258" viewBox="0 0 815 258" fill="none" xmlns="http://www.w3.org/2000/svg">
<path d="M 775.391 135.897 L 120.519 135.897 L 1.94812 234.665 H 695.454 L 775.391 135.897 Z" fill="white" stroke="black" stroke-width="3.89609" stroke-linecap="round" stroke-linejoin="round"/>
<path d="M 113.277 163.933 L 2.08313 234.665 V 84.5876 C 2.08313 84.5876 0.497669 74.4884 13.8909 61.0952 L 112.989 3.66216 C 119.072 -2.35497 119.888 9.43357 119.888 9.43357 C 119.686 12.6673 119.162 15.8728 118.325 19.0029 V 139.501 C 119.684 141.723 121.702 157.654 115.619 163.736 C 115.619 163.736 115.261 161.962 113.277 163.933 Z" fill="white" stroke="black" stroke-width="3.89609" stroke-linecap="round" stroke-linejoin="round"/>
<path d="M 113.288 21.6805 C 111.446 23.5179 109.96 22.066 109.96 18.3917 C 109.922 14.8042 111.094 11.3086 113.288 8.46968 C 115.106 6.66605 116.594 8.11747 116.594 11.7694 C 116.631 15.3497 115.467 18.8392 113.288 21.6805 Z" fill="white" stroke="black" stroke-width="3.89609" stroke-linecap="round" stroke-linejoin="round"/>
<path d="M 113.288 157.309 C 111.446 159.146 109.96 157.694 109.96 154.02 C 109.922 150.432 111.094 146.937 113.288 144.098 C 115.106 142.294 116.594 143.746 116.594 147.397 C 116.631 150.978 115.467 154.467 113.288 157.309 Z" fill="white" stroke="black" stroke-width="3.89609" stroke-linecap="round" stroke-linejoin="round"/>
<path d="M 806.275 163.933 L 695.082 234.665 V 84.5875 C 695.082 84.5875 693.496 74.4883 706.889 61.0951 L 805.989 3.66362 C 812.072 -2.3535 812.888 9.43503 812.888 9.43503 C 812.686 12.6687 812.163 15.8743 811.326 19.0044 V 139.503 C 812.684 141.724 814.702 157.655 808.619 163.738 C 808.619 163.738 808.259 161.962 806.275 163.933 Z" fill="white" stroke="black" stroke-width="3.89609" stroke-linecap="round" stroke-linejoin="round"/>
<path d="M 806.286 21.6805 C 804.443 23.5179 802.959 22.066 802.959 18.3917 C 802.92 14.8041 804.092 11.3084 806.286 8.46968 C 808.104 6.66605 809.591 8.11747 809.591 11.7694 C 809.628 15.3497 808.465 18.8391 806.286 21.6805 Z" fill="white" stroke="black" stroke-width="3.89609" stroke-linecap="round" stroke-linejoin="round"/>
<path d="M 806.286 157.309 C 804.443 159.146 802.959 157.694 802.959 154.02 C 802.92 150.432 804.092 146.937 806.286 144.098 C 808.104 142.294 809.591 143.746 809.591 147.397 C 809.628 150.977 808.465 154.467 806.286 157.309 Z" fill="white" stroke="black" stroke-width="3.89609" stroke-linecap="round" stroke-linejoin="round"/>
<path d="M 695.082 163.533 H 117.888" stroke="black" stroke-width="3.89609" stroke-linecap="round" stroke-linejoin="round"/>
<path d="M 658.472 255.113 H 52.0482 C 23.5778 255.113 24.8975 214.217 24.8975 214.217 H 685.633 C 685.633 214.217 684.921 255.113 658.472 255.113 Z" fill="white" stroke="black" stroke-width="3.89609" stroke-linecap="round" stroke-linejoin="round"/>
</svg>
