<svg xmlns="http://www.w3.org/2000/svg" width="1128" height="283" viewBox="30.54 115.96 221.13 55.45"><title>shelf-30</title><polygon points="242.649 140.949 64.418 140.949 33.539 164.473 219.206 164.473 242.649 140.949" style="fill:#fff;stroke:#000;stroke-linecap:round;stroke-linejoin:round;stroke-width:0.75px"/><path d="M62.9971,146.3462,33.5389,164.4727v-28.89s-.3052-1.9441,2.273-4.5222l27.13-15.5661c1.171-1.1583,1.328,1.1109,1.328,1.1109a9.4014,9.4014,0,0,1-.3007,1.8422V141.643c.2615.4277.65,3.4944-.521,4.6654C63.4484,146.3084,63.3791,145.9669,62.9971,146.3462Z" style="fill:#fff;stroke:#000;stroke-linecap:round;stroke-linejoin:round;stroke-width:0.75px"/><path d="M62.9993,118.9626c-.3548.3536-.6406.0741-.6406-.6331a3.0691,3.0691,0,0,1,.6406-1.91c.35-.3473.6362-.0678.6362.6351A3.0836,3.0836,0,0,1,62.9993,118.9626Z" style="fill:#fff;stroke:#000;stroke-linecap:round;stroke-linejoin:round;stroke-width:0.75px"/><path d="M62.9993,145.071c-.3548.3537-.6406.0742-.6406-.6331a3.0691,3.0691,0,0,1,.6406-1.91c.35-.3472.6362-.0677.6362.6352A3.0831,3.0831,0,0,1,62.9993,145.071Z" style="fill:#fff;stroke:#000;stroke-linecap:round;stroke-linejoin:round;stroke-width:0.75px"/><path d="M248.6638,146.3462l-29.4582,18.1265v-28.89s-.3052-1.9441,2.273-4.5222l27.13-15.5661c1.1709-1.1583,1.328,1.1109,1.328,1.1109a9.4014,9.4014,0,0,1-.3007,1.8422V141.643c.2615.4277.65,3.4944-.5211,4.6654C249.115,146.3084,249.0457,145.9669,248.6638,146.3462Z" style="fill:#fff;stroke:#000;stroke-linecap:round;stroke-linejoin:round;stroke-width:0.75px"/><path d="M248.6659,118.9626c-.3547.3536-.6406.0741-.6406-.6331a3.07,3.07,0,0,1,.6406-1.91c.35-.3473.6363-.0678.6363.6351A3.0837,3.0837,0,0,1,248.6659,118.9626Z" style="fill:#fff;stroke:#000;stroke-linecap:round;stroke-linejoin:round;stroke-width:0.75px"/><path d="M248.6659,145.071c-.3547.3537-.6406.0742-.6406-.6331a3.07,3.07,0,0,1,.6406-1.91c.35-.3472.6363-.0677.6363.6352A3.0831,3.0831,0,0,1,248.6659,145.071Z" style="fill:#fff;stroke:#000;stroke-linecap:round;stroke-linejoin:round;stroke-width:0.75px"/><line x1="219.1944" y1="146.2692" x2="63.4484" y2="146.3084" style="fill:#fff;stroke:#000;stroke-linecap:round;stroke-linejoin:round;stroke-width:0.75px"/><path d="M211.2125,168.4089H42.2256c-5.9394,0-5.6641-7.8725-5.6641-7.8725H216.8788S216.7306,168.4089,211.2125,168.4089Z" style="fill:#fff;stroke:#000;stroke-linecap:round;stroke-linejoin:round;stroke-width:0.75px"/></svg>