<svg width="1027" height="244" viewBox="0 0 1027 244" fill="none" xmlns="http://www.w3.org/2000/svg">
<path d="M989.39 128.487H114.004L1.89868 221.87H913.811L989.39 128.487Z" fill="white" stroke="black" stroke-width="3.68364" stroke-linecap="round" stroke-linejoin="round"/>
<path d="M107.027 154.994L1.89673 221.869V79.9751C1.89673 79.9751 0.397726 70.4266 13.0606 57.7637L106.755 3.46243C112.506 -2.22659 113.278 8.91913 113.278 8.91913C113.087 11.9765 112.592 15.0072 111.8 17.9666V131.894C113.085 133.995 114.993 149.057 109.241 154.808C109.241 154.808 108.903 153.131 107.027 154.994Z" fill="white" stroke="black" stroke-width="3.68364" stroke-linecap="round" stroke-linejoin="round"/>
<path d="M107.038 20.4983C105.296 22.2355 103.891 20.8627 103.891 17.3888C103.855 13.9969 104.964 10.6919 107.038 8.00781C108.757 6.30253 110.163 7.67482 110.163 11.1276C110.198 14.5127 109.098 17.8119 107.038 20.4983Z" fill="white" stroke="black" stroke-width="3.68364" stroke-linecap="round" stroke-linejoin="round"/>
<path d="M107.038 148.731C105.296 150.468 103.891 149.095 103.891 145.621C103.855 142.23 104.964 138.925 107.038 136.24C108.757 134.535 110.163 135.907 110.163 139.36C110.198 142.745 109.098 146.044 107.038 148.731Z" fill="white" stroke="black" stroke-width="3.68364" stroke-linecap="round" stroke-linejoin="round"/>
<path d="M1018.59 154.994L913.459 221.869V79.9751C913.459 79.9751 911.96 70.4266 924.623 57.7637L1018.32 3.46389C1024.07 -2.22513 1024.84 8.92059 1024.84 8.92059C1024.65 11.978 1024.16 15.0087 1023.36 17.9681V131.896C1024.65 133.996 1026.56 149.059 1020.81 154.81C1020.81 154.81 1020.47 153.131 1018.59 154.994Z" fill="white" stroke="black" stroke-width="3.68364" stroke-linecap="round" stroke-linejoin="round"/>
<path d="M1018.6 20.4983C1016.86 22.2355 1015.45 20.8627 1015.45 17.3888C1015.42 13.9969 1016.53 10.6917 1018.6 8.00781C1020.32 6.30253 1021.72 7.67482 1021.72 11.1276C1021.76 14.5126 1020.66 17.8118 1018.6 20.4983Z" fill="white" stroke="black" stroke-width="3.68364" stroke-linecap="round" stroke-linejoin="round"/>
<path d="M1018.6 148.731C1016.86 150.468 1015.45 149.095 1015.45 145.621C1015.42 142.23 1016.53 138.924 1018.6 136.24C1020.32 134.535 1021.72 135.907 1021.72 139.36C1021.76 142.745 1020.66 146.044 1018.6 148.731Z" fill="white" stroke="black" stroke-width="3.68364" stroke-linecap="round" stroke-linejoin="round"/>
<path d="M913.459 154.615L109.244 154.808" stroke="black" stroke-width="3.68364" stroke-linecap="round" stroke-linejoin="round"/>
<path d="M876.696 241.202H46.7134C17.5419 241.202 18.894 202.536 18.894 202.536H904.527C904.527 202.536 903.797 241.202 876.696 241.202Z" fill="white" stroke="black" stroke-width="3.68364" stroke-linecap="round" stroke-linejoin="round"/>
</svg>
