<svg xmlns="http://www.w3.org/2000/svg" width="774" height="188" viewBox="37.30 116.76 207.38 50.33"><title>shelf-16</title><polygon points="235.662 145.215 57.431 145.215 40.303 160.15 225.971 160.15 235.662 145.215" style="fill:#fff;stroke:#000;stroke-linecap:round;stroke-linejoin:round;stroke-width:0.75px"/><path d="M56.0105,150.6117,40.3027,160.15V131.8163a6.0236,6.0236,0,0,1,1.4154-3.7959L55.9555,119.76c1.171-1.1583,1.328,1.1109,1.328,1.1109a9.4014,9.4014,0,0,1-.3007,1.8422v23.1959c.2615.4277.65,3.4944-.521,4.6654C56.4618,150.5739,56.3925,150.2324,56.0105,150.6117Z" style="fill:#fff;stroke:#000;stroke-linecap:round;stroke-linejoin:round;stroke-width:0.75px"/><path d="M56.0127,123.2281c-.3548.3536-.6406.0742-.6406-.6331a3.0691,3.0691,0,0,1,.6406-1.91c.35-.3473.6362-.0678.6362.6352A3.0833,3.0833,0,0,1,56.0127,123.2281Z" style="fill:#fff;stroke:#000;stroke-linecap:round;stroke-linejoin:round;stroke-width:0.75px"/><path d="M56.0127,149.3366c-.3548.3536-.6406.0741-.6406-.6332a3.0691,3.0691,0,0,1,.6406-1.91c.35-.3472.6362-.0677.6362.6352A3.0836,3.0836,0,0,1,56.0127,149.3366Z" style="fill:#fff;stroke:#000;stroke-linecap:round;stroke-linejoin:round;stroke-width:0.75px"/><path d="M241.6793,150.6117,225.9715,160.15V131.8163a6.0236,6.0236,0,0,1,1.4154-3.7959l14.2374-8.2609c1.2824-1.2824,1.4963,1.0852,1.4963,1.0852a4.31,4.31,0,0,1-.469,2.702v22.3618c.7268.3529.65,3.4944-.521,4.6654C242.1306,150.5739,242.0612,150.2324,241.6793,150.6117Z" style="fill:#fff;stroke:#000;stroke-linecap:round;stroke-linejoin:round;stroke-width:0.75px"/><path d="M241.6815,123.2281c-.3548.3536-.6407.0742-.6407-.6331a3.0692,3.0692,0,0,1,.6407-1.91c.35-.3473.6362-.0678.6362.6352A3.084,3.084,0,0,1,241.6815,123.2281Z" style="fill:#fff;stroke:#000;stroke-linecap:round;stroke-linejoin:round;stroke-width:0.75px"/><path d="M241.6815,149.3366c-.3548.3536-.6407.0741-.6407-.6332a3.0692,3.0692,0,0,1,.6407-1.91c.35-.3472.6362-.0677.6362.6352A3.0843,3.0843,0,0,1,241.6815,149.3366Z" style="fill:#fff;stroke:#000;stroke-linecap:round;stroke-linejoin:round;stroke-width:0.75px"/><line x1="226.2841" y1="150.5347" x2="56.4618" y2="150.5739" style="fill:#fff;stroke:#000;stroke-linecap:round;stroke-linejoin:round;stroke-width:0.75px"/><path d="M218.134,164.0859H49.1471c-5.9394,0-5.6641-7.8726-5.6641-7.8726H223.8S223.6521,164.0859,218.134,164.0859Z" style="fill:#fff;stroke:#000;stroke-linecap:round;stroke-linejoin:round;stroke-width:0.75px"/></svg>