<svg xmlns="http://www.w3.org/2000/svg" width="847" height="213" viewBox="27.56 102.44 227.10 57.13"><title>double-shelf</title><path d="M43.5266,125.4011l19.8181-11.6395c.2633-.9584,3.2783-8.8991,3.2783-8.8991s-.9714-.264-1.4106.1752L30.5629,125.4428Z" style="fill:#1a1a1a;stroke:#000;stroke-linecap:round;stroke-linejoin:round;stroke-width:0.75px"/><path d="M65.9832,136.5729c1.1774-1.1794,1.2363-3.6722,1.2363-3.6722a3.3653,3.3653,0,0,0-.3025-1.2433V108.2822a9.66,9.66,0,0,0,.3025-1.853s-.0589-2.4212-1.2363-1.2438L31.9885,125.4428v31.1311Z" style="fill:#fff;stroke:#000;stroke-linecap:round;stroke-linejoin:round;stroke-width:0.75px"/><rect x="30.5629" y="125.4428" width="1.4256" height="31.1311" style="fill:#1d1d1b;stroke:#000;stroke-linecap:round;stroke-linejoin:round;stroke-width:0.75px"/><path d="M65.9128,108.7043c-.3539.3539-.6413.0664-.6413-.6418a3.13,3.13,0,0,1,.6413-1.927c.3539-.3539.6418-.069.6418.6418A3.1362,3.1362,0,0,1,65.9128,108.7043Z" style="fill:#fff;stroke:#000;stroke-linecap:round;stroke-linejoin:round;stroke-width:0.75px"/><path d="M65.9128,135.3167c-.3539.3539-.6413.0664-.6413-.6418a3.13,3.13,0,0,1,.6413-1.927c.3539-.3539.6418-.069.6418.6418A3.1362,3.1362,0,0,1,65.9128,135.3167Z" style="fill:#fff;stroke:#000;stroke-linecap:round;stroke-linejoin:round;stroke-width:0.75px"/><rect x="31.9885" y="151.0351" width="184.2565" height="5.5388" style="fill:#fff;stroke:#000;stroke-linecap:round;stroke-linejoin:round;stroke-width:0.75px"/><polygon points="216.245 151.035 31.989 151.035 65.913 131.034 250.24 131.034 216.245 151.035" style="fill:#fff;stroke:#000;stroke-linecap:round;stroke-linejoin:round;stroke-width:0.75px"/><rect x="31.9885" y="125.4441" width="184.2565" height="5.5388" style="fill:#fff;stroke:#000;stroke-linecap:round;stroke-linejoin:round;stroke-width:0.75px"/><polygon points="216.245 125.444 31.989 125.444 65.913 105.443 250.24 105.443 216.245 125.444" style="fill:#fff;stroke:#000;stroke-linecap:round;stroke-linejoin:round;stroke-width:0.75px"/><path d="M229.2087,125.4011l19.8181-11.6395c.2633-.9584,3.2783-8.8991,3.2783-8.8991s-.9714-.264-1.4106.1752L216.245,125.4428Z" style="fill:#1a1a1a;stroke:#000;stroke-linecap:round;stroke-linejoin:round;stroke-width:0.75px"/><path d="M251.6653,136.5729c1.1774-1.1794,1.2363-3.6722,1.2363-3.6722a3.3653,3.3653,0,0,0-.3025-1.2433V108.2822a9.66,9.66,0,0,0,.3025-1.853s-.0589-2.4212-1.2363-1.2438l-33.9947,20.2574v31.1311Z" style="fill:#fff;stroke:#000;stroke-linecap:round;stroke-linejoin:round;stroke-width:0.75px"/><path d="M220.4789,153.1708c-.32.3191-.58.0589-.58-.58a2.8159,2.8159,0,0,1,.58-1.7327c.3172-.32.5774-.0614.5774.5774A2.8325,2.8325,0,0,1,220.4789,153.1708Z"/><path d="M239.1051,142.5121c-.32.32-.5778.0614-.5778-.5774a2.81,2.81,0,0,1,.5778-1.7332c.3192-.3191.5774-.0614.5774.5779A2.8119,2.8119,0,0,1,239.1051,142.5121Z"/><path d="M229.791,147.8406c-.3191.32-.5774.0614-.5774-.5774a2.8186,2.8186,0,0,1,.5774-1.7332c.32-.3191.5779-.0614.5779.5779A2.8124,2.8124,0,0,1,229.791,147.8406Z"/><path d="M248.4182,137.1838c-.32.3192-.5773.0614-.5773-.5779a2.8148,2.8148,0,0,1,.5773-1.7326c.32-.32.5779-.0614.5779.5774A2.8033,2.8033,0,0,1,248.4182,137.1838Z"/><path d="M220.4789,127.7277c-.32.3191-.58.0589-.58-.58a2.8159,2.8159,0,0,1,.58-1.7327c.3172-.32.5774-.0614.5774.5774A2.8325,2.8325,0,0,1,220.4789,127.7277Z"/><path d="M239.1051,116.4023c-.32.32-.5778.0614-.5778-.5774a2.81,2.81,0,0,1,.5778-1.7332c.3192-.3191.5774-.0614.5774.5779A2.8119,2.8119,0,0,1,239.1051,116.4023Z"/><path d="M229.791,122.0641c-.3191.32-.5774.0614-.5774-.5774a2.8181,2.8181,0,0,1,.5774-1.7331c.32-.3192.5779-.0615.5779.5778A2.8122,2.8122,0,0,1,229.791,122.0641Z"/><path d="M248.4182,110.7407c-.32.3191-.5773.0614-.5773-.5779a2.8145,2.8145,0,0,1,.5773-1.7326c.32-.32.5779-.0615.5779.5773A2.8036,2.8036,0,0,1,248.4182,110.7407Z"/><rect x="216.245" y="125.4428" width="1.4256" height="31.1311" style="fill:#1d1d1b;stroke:#000;stroke-linecap:round;stroke-linejoin:round;stroke-width:0.75px"/><path d="M251.5949,108.7043c-.3538.3539-.6413.0664-.6413-.6418a3.131,3.131,0,0,1,.6413-1.927c.3539-.3539.6418-.069.6418.6418A3.1362,3.1362,0,0,1,251.5949,108.7043Z" style="fill:#fff;stroke:#000;stroke-linecap:round;stroke-linejoin:round;stroke-width:0.75px"/><path d="M251.5949,135.3167c-.3538.3539-.6413.0664-.6413-.6418a3.131,3.131,0,0,1,.6413-1.927c.3539-.3539.6418-.069.6418.6418A3.1362,3.1362,0,0,1,251.5949,135.3167Z" style="fill:#fff;stroke:#000;stroke-linecap:round;stroke-linejoin:round;stroke-width:0.75px"/></svg>