<svg xmlns="http://www.w3.org/2000/svg" width="847" height="212" viewBox="26.93 102.44 227.12 56.96"><title>single-shelf</title><path d="M42.8972,125.23l19.8182-11.6395c.2633-.9585,3.3006-8.7282,3.3006-8.7282s-.9714-.264-1.4106.1752L29.9336,125.2719Z" style="fill:#1a1a1a;stroke:#000;stroke-linecap:round;stroke-linejoin:round;stroke-width:0.75px"/><path d="M65.3762,136.5729c1.1774-1.1794,1.2363-3.6722,1.2363-3.6722a3.3653,3.3653,0,0,0-.3025-1.2433V108.2822a9.66,9.66,0,0,0,.3025-1.853s-.0589-2.4212-1.2363-1.2438l-34.017,20.0865V156.403Z" style="fill:#fff;stroke:#000;stroke-linecap:round;stroke-linejoin:round;stroke-width:0.75px"/><rect x="29.9336" y="125.2719" width="1.4256" height="31.1311" style="fill:#1d1d1b;stroke:#000;stroke-linecap:round;stroke-linejoin:round;stroke-width:0.75px"/><path d="M65.3058,108.7043c-.3539.3539-.6413.0664-.6413-.6418a3.13,3.13,0,0,1,.6413-1.927c.3539-.3539.6418-.069.6418.6418A3.1362,3.1362,0,0,1,65.3058,108.7043Z" style="fill:#fff;stroke:#000;stroke-linecap:round;stroke-linejoin:round;stroke-width:0.75px"/><path d="M65.3058,135.3167c-.3539.3539-.6413.0664-.6413-.6418a3.13,3.13,0,0,1,.6413-1.927c.3539-.3539.6418-.069.6418.6418A3.1362,3.1362,0,0,1,65.3058,135.3167Z" style="fill:#fff;stroke:#000;stroke-linecap:round;stroke-linejoin:round;stroke-width:0.75px"/><rect x="31.3592" y="125.2732" width="184.2565" height="5.5388" style="fill:#fff;stroke:#000;stroke-linecap:round;stroke-linejoin:round;stroke-width:0.75px"/><polygon points="215.616 125.273 31.359 125.273 65.306 105.443 249.633 105.443 215.616 125.273" style="fill:#fff;stroke:#000;stroke-linecap:round;stroke-linejoin:round;stroke-width:0.75px"/><path d="M228.5793,125.23l19.8182-11.6395c.2633-.9585,3.3006-8.7282,3.3006-8.7282s-.9714-.264-1.4106.1752l-34.6718,20.2342Z" style="fill:#1a1a1a;stroke:#000;stroke-linecap:round;stroke-linejoin:round;stroke-width:0.75px"/><path d="M251.0583,136.5729c1.1774-1.1794,1.2363-3.6722,1.2363-3.6722a3.3653,3.3653,0,0,0-.3025-1.2433V108.2822a9.66,9.66,0,0,0,.3025-1.853s-.0589-2.4212-1.2363-1.2438l-34.017,20.0865V156.403Z" style="fill:#fff;stroke:#000;stroke-linecap:round;stroke-linejoin:round;stroke-width:0.75px"/><path d="M219.74,128.3248c-.32.3191-.58.0589-.58-.58a2.8159,2.8159,0,0,1,.58-1.7327c.3171-.32.5774-.0614.5774.5774A2.8332,2.8332,0,0,1,219.74,128.3248Z"/><path d="M238.4541,116.7463c-.32.32-.5779.0614-.5779-.5774a2.8094,2.8094,0,0,1,.5779-1.7332c.3191-.3191.5774-.0614.5774.5779A2.8126,2.8126,0,0,1,238.4541,116.7463Z"/><path d="M229.0959,122.5346c-.3191.32-.5773.0614-.5773-.5774a2.8183,2.8183,0,0,1,.5773-1.7331c.32-.3192.5779-.0614.5779.5779A2.8118,2.8118,0,0,1,229.0959,122.5346Z"/><path d="M247.8112,110.9581c-.32.3192-.5773.0614-.5773-.5779a2.8145,2.8145,0,0,1,.5773-1.7326c.32-.32.5779-.0614.5779.5774A2.8035,2.8035,0,0,1,247.8112,110.9581Z"/><rect x="215.6157" y="125.2719" width="1.4256" height="31.1311" style="fill:#1d1d1b;stroke:#000;stroke-linecap:round;stroke-linejoin:round;stroke-width:0.75px"/><path d="M250.9879,108.7043c-.3538.3539-.6413.0664-.6413-.6418a3.131,3.131,0,0,1,.6413-1.927c.3539-.3539.6418-.069.6418.6418A3.1362,3.1362,0,0,1,250.9879,108.7043Z" style="fill:#fff;stroke:#000;stroke-linecap:round;stroke-linejoin:round;stroke-width:0.75px"/><path d="M250.9879,135.3167c-.3538.3539-.6413.0664-.6413-.6418a3.131,3.131,0,0,1,.6413-1.927c.3539-.3539.6418-.069.6418.6418A3.1362,3.1362,0,0,1,250.9879,135.3167Z" style="fill:#fff;stroke:#000;stroke-linecap:round;stroke-linejoin:round;stroke-width:0.75px"/></svg>