<svg xmlns="http://www.w3.org/2000/svg" width="1160" height="263" viewBox="27.46 115.25 227.36 51.58"><title>shelf-sloping-18</title><path d="M251.8214,146.34l-31.8135,17.1732h-2.9121l1.1067-1.7621c.3939-.682.1657-1.2341-.5162-1.2341h-1.1141a2.5662,2.5662,0,0,0-1.9489,1.2341l-1.1623,2.1318-4.1241,3.6393-175.1681-.0241-.384-3.303,1.1068-1.887c.3958-.677.1657-1.234-.5138-1.234H33.2612a2.5763,2.5763,0,0,0-1.9469,1.234L30.46,163.83,65.8238,116,247.56,115.9l4.6427-.01c.7778,0,.8019,1.5172.8019,1.5172a9.5044,9.5044,0,0,1-.2955,1.81v22.35a3.3154,3.3154,0,0,1,.2955,1.2193s-.0339,2.4008-1.1834,3.5532" style="fill:#fff;stroke:#000;stroke-linecap:round;stroke-linejoin:round;stroke-width:0.75px"/><path d="M251.5593,119.8844c-.3456.3407-.6263.0625-.6263-.6288a3.062,3.062,0,0,1,.6263-1.8821c.3457-.3461.6269-.0673.6269.6288A3.0738,3.0738,0,0,1,251.5593,119.8844Z" style="fill:none;stroke:#000;stroke-linecap:round;stroke-linejoin:round;stroke-width:0.75px"/><path d="M251.5593,145.461c-.3456.3462-.6263.0674-.6263-.6239a3.0634,3.0634,0,0,1,.6263-1.8821c.3457-.3456.6269-.0624.6269.624A3.0516,3.0516,0,0,1,251.5593,145.461Z" style="fill:none;stroke:#000;stroke-linecap:round;stroke-linejoin:round;stroke-width:0.75px"/><line x1="220.7567" y1="160.5265" x2="250.2151" y2="118.2521" style="fill:#fff;stroke:#000;stroke-linecap:round;stroke-linejoin:round;stroke-width:0.75px"/><path d="M202.3146,160.5456l-163.3418-.0142c-6.4122.4562-6.4122,7.0292-6.4122,7.0292l176.1642.0143S208.7248,161.0019,202.3146,160.5456Z" style="fill:#fff;stroke:#000;stroke-linecap:round;stroke-linejoin:round;stroke-width:0.75px"/></svg>