<svg width="849" height="280" viewBox="0 0 849 280" fill="none" xmlns="http://www.w3.org/2000/svg">
<path d="M810.584 127.286H180.363L1.82477 258.485H669.007L810.584 127.286Z" fill="white" stroke="black" stroke-width="3.64929" stroke-linecap="round" stroke-linejoin="round"/>
<path d="M690.345 153.174H180.825" stroke="black" stroke-width="3.64929" stroke-linecap="round" stroke-linejoin="round"/>
<path d="M175.629 153.548L4.00566 258.486V117.916C4.00566 117.916 2.52065 108.456 15.065 95.9116L175.363 3.4303C181.06 -2.20566 181.825 8.83564 181.825 8.83564C181.635 11.8646 181.145 14.8673 180.362 17.7993V130.664C181.634 132.745 183.524 147.667 177.826 153.365C177.826 153.365 177.487 151.703 175.629 153.548Z" fill="white" stroke="black" stroke-width="3.64929" stroke-linecap="round" stroke-linejoin="round"/>
<path d="M175.639 20.3073C173.914 22.0283 172.522 20.6684 172.522 17.2269C172.486 13.8666 173.585 10.5924 175.639 7.93333C177.342 6.24347 178.735 7.60344 178.735 11.024C178.77 14.3775 177.68 17.6459 175.639 20.3073Z" fill="white" stroke="black" stroke-width="3.64929" stroke-linecap="round" stroke-linejoin="round"/>
<path d="M175.639 147.344C173.914 149.065 172.522 147.705 172.522 144.263C172.486 140.903 173.585 137.629 175.639 134.97C177.342 133.28 178.735 134.64 178.735 138.06C178.77 141.414 177.68 144.683 175.639 147.344Z" fill="white" stroke="black" stroke-width="3.64929" stroke-linecap="round" stroke-linejoin="round"/>
<path d="M840.63 153.548L669.007 258.486V117.916C669.007 117.916 667.521 108.456 680.066 95.9116L840.362 3.43177C846.06 -2.20419 846.825 8.8371 846.825 8.8371C846.635 11.8661 846.145 14.8688 845.361 17.8007V130.665C846.633 132.747 848.524 147.668 842.826 153.366C842.826 153.366 842.489 151.703 840.63 153.548Z" fill="white" stroke="black" stroke-width="3.64929" stroke-linecap="round" stroke-linejoin="round"/>
<path d="M840.641 20.3073C838.915 22.0283 837.524 20.6684 837.524 17.2269C837.488 13.8666 838.586 10.5924 840.641 7.93333C842.344 6.24347 843.737 7.60344 843.737 11.024C843.772 14.3775 842.682 17.6459 840.641 20.3073Z" fill="white" stroke="black" stroke-width="3.64929" stroke-linecap="round" stroke-linejoin="round"/>
<path d="M840.641 147.344C838.915 149.065 837.524 147.705 837.524 144.263C837.488 140.903 838.586 137.629 840.641 134.97C842.344 133.28 843.737 134.64 843.737 138.06C843.772 141.414 842.682 144.683 840.641 147.344Z" fill="white" stroke="black" stroke-width="3.64929" stroke-linecap="round" stroke-linejoin="round"/>
<path d="M629.232 277.639H40.9901C12.0907 277.639 13.4302 239.333 13.4302 239.333H656.802C656.802 239.333 656.081 277.639 629.232 277.639Z" fill="white" stroke="black" stroke-width="3.64929" stroke-linecap="round" stroke-linejoin="round"/>
</svg>
