<svg width="1086" height="280" viewBox="0 0 1086 280" fill="none" xmlns="http://www.w3.org/2000/svg">
<path d="M1047.58 127.286H180.362L1.82471 258.485H906.006L1047.58 127.286Z" fill="white" stroke="black" stroke-width="3.64929" stroke-linecap="round" stroke-linejoin="round"/>
<path d="M927.345 153.174L176.504 153.365" stroke="black" stroke-width="3.64929" stroke-linecap="round" stroke-linejoin="round"/>
<path d="M174.308 153.548L2.68455 258.486V117.916C2.68455 117.916 1.19954 108.456 13.7438 95.9116L174.042 3.4303C179.739 -2.20566 180.504 8.83564 180.504 8.83564C180.314 11.8646 179.824 14.8673 179.041 17.7993V130.664C180.312 132.745 182.203 147.667 176.505 153.365C176.505 153.365 176.166 151.703 174.308 153.548Z" fill="white" stroke="black" stroke-width="3.64929" stroke-linecap="round" stroke-linejoin="round"/>
<path d="M174.318 20.3073C172.592 22.0283 171.201 20.6684 171.201 17.2269C171.165 13.8666 172.264 10.5924 174.318 7.93333C176.021 6.24347 177.414 7.60344 177.414 11.024C177.449 14.3775 176.359 17.6459 174.318 20.3073Z" fill="white" stroke="black" stroke-width="3.64929" stroke-linecap="round" stroke-linejoin="round"/>
<path d="M174.318 147.344C172.592 149.065 171.201 147.705 171.201 144.263C171.165 140.903 172.264 137.629 174.318 134.97C176.021 133.28 177.414 134.64 177.414 138.06C177.449 141.414 176.359 144.683 174.318 147.344Z" fill="white" stroke="black" stroke-width="3.64929" stroke-linecap="round" stroke-linejoin="round"/>
<path d="M1077.63 153.548L906.007 258.486V117.916C906.007 117.916 904.521 108.456 917.066 95.9116L1077.36 3.43177C1083.06 -2.20419 1083.82 8.8371 1083.82 8.8371C1083.64 11.8661 1083.14 14.8688 1082.36 17.8007V130.665C1083.63 132.747 1085.52 147.668 1079.83 153.366C1079.83 153.366 1079.49 151.703 1077.63 153.548Z" fill="white" stroke="black" stroke-width="3.64929" stroke-linecap="round" stroke-linejoin="round"/>
<path d="M1077.64 20.3073C1075.92 22.0283 1074.52 20.6684 1074.52 17.2269C1074.49 13.8666 1075.59 10.5924 1077.64 7.93333C1079.34 6.24347 1080.74 7.60344 1080.74 11.024C1080.77 14.3775 1079.68 17.6459 1077.64 20.3073Z" fill="white" stroke="black" stroke-width="3.64929" stroke-linecap="round" stroke-linejoin="round"/>
<path d="M1077.64 147.344C1075.92 149.065 1074.52 147.705 1074.52 144.263C1074.49 140.903 1075.59 137.629 1077.64 134.97C1079.34 133.28 1080.74 134.64 1080.74 138.06C1080.77 141.414 1079.68 144.683 1077.64 147.344Z" fill="white" stroke="black" stroke-width="3.64929" stroke-linecap="round" stroke-linejoin="round"/>
<path d="M866.233 277.639H43.9901C15.0906 277.639 16.4302 239.333 16.4302 239.333H893.803C893.803 239.333 893.082 277.639 866.233 277.639Z" fill="white" stroke="black" stroke-width="3.64929" stroke-linecap="round" stroke-linejoin="round"/>
</svg>
