<svg xmlns="http://www.w3.org/2000/svg" width="797" height="474" viewBox="34.32 76.48 213.65 127.10"><title>shelf-sloping-79</title><path d="M244.9743,79.4825H59.2881l-.305.5123L37.3206,200.555l.3188-1.8563a1.4766,1.4766,0,0,1,1.4162-1.2375h1.1267a1.0419,1.0419,0,0,1,1.0588,1.2375l-.2856,1.9.4108,3.326,175.6869.0094,4.1091-3.374.3243-1.9384a1.4808,1.4808,0,0,1,1.4162-1.2375h1.1212a1.05,1.05,0,0,1,1.0638,1.2375l-.2852,1.89,1.9434-.0336,18.204-11.8556" style="fill:#fff;stroke:#000;stroke-linecap:round;stroke-linejoin:round;stroke-width:0.75px"/><path d="M244.9213,79.478c1.1405,0,1.2227,1.5563,1.2227,1.5563a9.7352,9.7352,0,0,1-.2995,1.8271V183.8221a3.3306,3.3306,0,0,1,.2995,1.2227s-.0337,2.4221-1.194,3.5774" style="fill:#fff;stroke:#000;stroke-linecap:round;stroke-linejoin:round;stroke-width:0.75px"/><path d="M244.5675,83.1849c-.343.348-.6282.0679-.6282-.6281a3.1059,3.1059,0,0,1,.6282-1.8954c.353-.3525.6331-.0673.6331.6286A3.0536,3.0536,0,0,1,244.5675,83.1849Z" style="fill:none;stroke:#000;stroke-linecap:round;stroke-linejoin:round;stroke-width:0.75px"/><path d="M244.57,187.1841c-.3484.348-.6336.0629-.6336-.6336a3.0822,3.0822,0,0,1,.6336-1.8949c.3525-.348.6332-.0628.6332.6336A3.0456,3.0456,0,0,1,244.57,187.1841Z" style="fill:none;stroke:#000;stroke-linecap:round;stroke-linejoin:round;stroke-width:0.75px"/><line x1="226.0788" y1="195.6435" x2="242.6586" y2="81.2908" style="fill:#fff;stroke:#000;stroke-linecap:round;stroke-linejoin:round;stroke-width:0.75px"/><path d="M210.5953,196.8568H46.4135c-6.4535.4593-6.4535,7.0771-6.4535,7.0771H217.0532S217.0532,197.3161,210.5953,196.8568Z" style="fill:#fff;stroke:#000;stroke-linecap:round;stroke-linejoin:round;stroke-width:0.75px"/><line x1="37.3206" y1="200.5781" x2="41.1104" y2="198.1803" style="fill:#fff;stroke:#000;stroke-linecap:round;stroke-linejoin:round;stroke-width:0.75px"/></svg>