<svg xmlns="http://www.w3.org/2000/svg" width="847" height="212" viewBox="27.60 97.37 227.04 56.95"><title>shelf-rail</title><path d="M30.602,150.0083V121.17l35.4956-20.5013c1.1561-1.1586,1.1947,1.2432,1.1947,1.2432a9.4728,9.4728,0,0,1-.2463,1.5977,1.9292,1.9292,0,0,0-.0588.4573v22.349a1.9652,1.9652,0,0,0,.1185.6743,3.9555,3.9555,0,0,1,.1866.97s-.0386,2.4207-1.1947,3.5817L33.7465,151.3175A1.8448,1.8448,0,0,1,30.602,150.0083Z" style="fill:#fff;stroke:#000;stroke-linecap:round;stroke-linejoin:round;stroke-width:0.75px"/><path d="M228.2987,132.6142H43.9288a1.2778,1.2778,0,0,1-1.08-.5809c-.3968-.6079-.8028-1.8519-.8028-4.3977,0-2.4972.4279-3.7446.8345-4.3661a1.3145,1.3145,0,0,1,1.1039-.6124H228.2987a1.5165,1.5165,0,0,1,1.4,1.6106v6.7359A1.5165,1.5165,0,0,1,228.2987,132.6142Z" style="fill:#fff;stroke:#000;stroke-linecap:round;stroke-linejoin:round;stroke-width:0.75px"/><path d="M215.7934,148.4752V121.17l35.4956-20.5013c1.3147-1.3147,2.1319,1.8241.89,3.0663v22.96c0,.0273-.0021.0606.02.0764.9729.6927,1.038,2.8229-.91,4.7707l-31.263,18.6954A2.4831,2.4831,0,0,1,215.7934,148.4752Z" style="fill:#fff;stroke:#000;stroke-linecap:round;stroke-linejoin:round;stroke-width:0.75px"/><polygon points="215.767 121.18 251.638 100.367 66.005 100.367 30.606 120.776 215.767 121.18" style="fill:#fff;stroke:#000;stroke-linecap:round;stroke-linejoin:round;stroke-width:0.75px"/><path d="M36.9781,113.1792H209.3117c4.3483,0,5.4076,4.19,5.6611,6.5052a1.3517,1.3517,0,0,1-1.35,1.4954H32.7372a1.3505,1.3505,0,0,1-1.3428-1.5515C31.7559,117.3018,32.9629,113.1792,36.9781,113.1792Z" style="fill:#fff;stroke:#000;stroke-linecap:round;stroke-linejoin:round;stroke-width:0.75px"/><path d="M251.6383,103.2624c-.26.26-.4695.0488-.4695-.471a2.2991,2.2991,0,0,1,.4695-1.4154c.26-.26.47-.0506.47.4711A2.3022,2.3022,0,0,1,251.6383,103.2624Z" style="fill:none;stroke:#000;stroke-linecap:round;stroke-linejoin:round;stroke-width:0.75px"/><path d="M251.6383,129.8287c-.2529.2533-.4569.0475-.4569-.4583a2.2371,2.2371,0,0,1,.4569-1.3773c.253-.2529.457-.0475.457.4584A2.2364,2.2364,0,0,1,251.6383,129.8287Z" style="fill:none;stroke:#000;stroke-linecap:round;stroke-linejoin:round;stroke-width:0.75px"/><path d="M227.23,125.3925a1.9542,1.9542,0,0,0-.3962,1.1947c0,.44.1788.6167.3962.3968a1.91,1.91,0,0,0,.3968-1.1928C227.6263,125.3514,227.4524,125.1721,227.23,125.3925Z"/><path d="M227.23,122.7514a1.9542,1.9542,0,0,0-.3962,1.1947c0,.4379.1788.6167.3962.3968a1.923,1.923,0,0,0,.3968-1.1952C227.6263,122.71,227.4524,122.531,227.23,122.7514Z"/><path d="M139.1882,132.8889a9.9053,9.9053,0,0,1-3.7566,5.7893V149.85" style="fill:none;stroke:#000;stroke-linecap:round;stroke-linejoin:round;stroke-width:0.75px;stroke-dasharray:1,1,1,1,1,1"/><path d="M130.6092,134.3876c0-4.1791,2.1618-9.2581,4.8224-11.3479,1.3272-1.0449,2.53-1.1441,3.4-.46" style="fill:none;stroke:#000;stroke-linecap:round;stroke-linejoin:round;stroke-width:0.75px;stroke-dasharray:1,1,1,1,1,1"/><path d="M169.1976,145.1346c-9.57-3.1935-21.2154-1.7722-33.766,5.2646-12.5576,7.0471-24.1969,18.7125-33.7855,32.66" style="fill:none;stroke:#000;stroke-linecap:round;stroke-linejoin:round;stroke-width:0.75px;stroke-dasharray:1,1,1,1,1,1"/></svg>