<svg width="1063" height="244" viewBox="0 0 1063 244" fill="none" xmlns="http://www.w3.org/2000/svg">
<path d="M 1025.39 128.487 H 114.004 L 1.89868 221.87 H 949.811 L 1025.39 128.487 Z" fill="white" stroke="black" stroke-width="3.68364" stroke-linecap="round" stroke-linejoin="round"/>
<path d="M 107.027 154.994 L 1.89673 221.869 V 79.9751 C 1.89673 79.9751 0.397726 70.4266 13.0606 57.7637 L 106.755 3.46243 C 112.506 -2.22659 113.278 8.91913 113.278 8.91913 C 113.087 11.9765 112.592 15.0072 111.8 17.9666 V 131.894 C 113.085 133.995 114.993 149.057 109.241 154.808 C 109.241 154.808 108.903 153.131 107.027 154.994 Z" fill="white" stroke="black" stroke-width="3.68364" stroke-linecap="round" stroke-linejoin="round"/>
<path d="M 107.038 20.4983 C 105.296 22.2355 103.891 20.8627 103.891 17.3888 C 103.855 13.9969 104.964 10.6919 107.038 8.00781 C 108.757 6.30253 110.163 7.67482 110.163 11.1276 C 110.198 14.5127 109.098 17.8119 107.038 20.4983 Z" fill="white" stroke="black" stroke-width="3.68364" stroke-linecap="round" stroke-linejoin="round"/>
<path d="M 107.038 148.731 C 105.296 150.468 103.891 149.095 103.891 145.621 C 103.855 142.23 104.964 138.925 107.038 136.24 C 108.757 134.535 110.163 135.907 110.163 139.36 C 110.198 142.745 109.098 146.044 107.038 148.731 Z" fill="white" stroke="black" stroke-width="3.68364" stroke-linecap="round" stroke-linejoin="round"/>
<path d="M 1054.59 154.994 L 949.459 221.869 V 79.9751 C 949.459 79.9751 947.96 70.4266 960.623 57.7637 L 1054.32 3.46389 C 1060.07 -2.22513 1060.84 8.92059 1060.84 8.92059 C 1060.65 11.978 1060.16 15.0087 1059.36 17.9681 V 131.896 C 1060.65 133.996 1062.56 149.059 1056.81 154.81 C 1056.81 154.81 1056.47 153.131 1054.59 154.994 Z" fill="white" stroke="black" stroke-width="3.68364" stroke-linecap="round" stroke-linejoin="round"/>
<path d="M 1054.6 20.4983 C 1052.86 22.2355 1051.45 20.8627 1051.45 17.3888 C 1051.42 13.9969 1052.53 10.6917 1054.6 8.00781 C 1056.32 6.30253 1057.72 7.67482 1057.72 11.1276 C 1057.76 14.5126 1056.66 17.8118 1054.6 20.4983 Z" fill="white" stroke="black" stroke-width="3.68364" stroke-linecap="round" stroke-linejoin="round"/>
<path d="M 1054.6 148.731 C 1052.86 150.468 1051.45 149.095 1051.45 145.621 C 1051.42 142.23 1052.53 138.924 1054.6 136.24 C 1056.32 134.535 1057.72 135.907 1057.72 139.36 C 1057.76 142.745 1056.66 146.044 1054.6 148.731 Z" fill="white" stroke="black" stroke-width="3.68364" stroke-linecap="round" stroke-linejoin="round"/>
<path d="M 949.459 154.615 L 109.244 154.808" stroke="black" stroke-width="3.68364" stroke-linecap="round" stroke-linejoin="round"/>
<path d="M 912.696 241.202 H 46.7134 C 17.5419 241.202 18.894 202.536 18.894 202.536 H 940.527 C 940.527 202.536 939.797 241.202 912.696 241.202 Z" fill="white" stroke="black" stroke-width="3.68364" stroke-linecap="round" stroke-linejoin="round"/>
</svg>
