<svg width="1130" height="280" viewBox="0 0 1130 280" fill="none" xmlns="http://www.w3.org/2000/svg">
<path d="M 1091.58 127.286 H 180.362 L 1.82471 258.485 H 950.006 L 1091.58 127.286 Z" fill="white" stroke="black" stroke-width="3.64929" stroke-linecap="round" stroke-linejoin="round"/>
<path d="M 971.345 153.174 L 176.504 153.365" stroke="black" stroke-width="3.64929" stroke-linecap="round" stroke-linejoin="round"/>
<path d="M 174.308 153.548 L 2.68455 258.486 V 117.916 C 2.68455 117.916 1.19954 108.456 13.7438 95.9116 L 174.042 3.4303 C 179.739 -2.20566 180.504 8.83564 180.504 8.83564 C 180.314 11.8646 179.824 14.8673 179.041 17.7993 V 130.664 C 180.312 132.745 182.203 147.667 176.505 153.365 C 176.505 153.365 176.166 151.703 174.308 153.548 Z" fill="white" stroke="black" stroke-width="3.64929" stroke-linecap="round" stroke-linejoin="round"/>
<path d="M 174.318 20.3073 C 172.592 22.0283 171.201 20.6684 171.201 17.2269 C 171.165 13.8666 172.264 10.5924 174.318 7.93333 C 176.021 6.24347 177.414 7.60344 177.414 11.024 C 177.449 14.3775 176.359 17.6459 174.318 20.3073 Z" fill="white" stroke="black" stroke-width="3.64929" stroke-linecap="round" stroke-linejoin="round"/>
<path d="M 174.318 147.344 C 172.592 149.065 171.201 147.705 171.201 144.263 C 171.165 140.903 172.264 137.629 174.318 134.97 C 176.021 133.28 177.414 134.64 177.414 138.06 C 177.449 141.414 176.359 144.683 174.318 147.344 Z" fill="white" stroke="black" stroke-width="3.64929" stroke-linecap="round" stroke-linejoin="round"/>
<path d="M 1121.63 153.548 L 950.007 258.486 V 117.916 C 950.007 117.916 948.521 108.456 961.066 95.9116 L 1121.36 3.43177 C 1127.06 -2.20419 1127.82 8.8371 1127.82 8.8371 C 1127.64 11.8661 1127.14 14.8688 1126.36 17.8007 V 130.665 C 1127.63 132.747 1129.52 147.668 1123.83 153.366 C 1123.83 153.366 1123.49 151.703 1121.63 153.548 Z" fill="white" stroke="black" stroke-width="3.64929" stroke-linecap="round" stroke-linejoin="round"/>
<path d="M 1121.64 20.3073 C 1119.92 22.0283 1118.52 20.6684 1118.52 17.2269 C 1118.49 13.8666 1119.59 10.5924 1121.64 7.93333 C 1123.34 6.24347 1124.74 7.60344 1124.74 11.024 C 1124.77 14.3775 1123.68 17.6459 1121.64 20.3073 Z" fill="white" stroke="black" stroke-width="3.64929" stroke-linecap="round" stroke-linejoin="round"/>
<path d="M 1121.64 147.344 C 1119.92 149.065 1118.52 147.705 1118.52 144.263 C 1118.49 140.903 1119.59 137.629 1121.64 134.97 C 1123.34 133.28 1124.74 134.64 1124.74 138.06 C 1124.77 141.414 1123.68 144.683 1121.64 147.344 Z" fill="white" stroke="black" stroke-width="3.64929" stroke-linecap="round" stroke-linejoin="round"/>
<path d="M 910.233 277.639 H 43.9901 C 15.0906 277.639 16.4302 239.333 16.4302 239.333 H 937.803 C 937.803 239.333 937.082 277.639 910.233 277.639 Z" fill="white" stroke="black" stroke-width="3.64929" stroke-linecap="round" stroke-linejoin="round"/>
</svg>
