<svg width="787" height="258" viewBox="0 0 787 258" fill="none" xmlns="http://www.w3.org/2000/svg">
<path d="M747.391 135.897L120.519 135.897L1.94812 234.665H667.454L747.391 135.897Z" fill="white" stroke="black" stroke-width="3.89609" stroke-linecap="round" stroke-linejoin="round"/>
<path d="M113.277 163.933L2.08313 234.665V84.5876C2.08313 84.5876 0.497669 74.4884 13.8909 61.0952L112.989 3.66216C119.072 -2.35497 119.888 9.43357 119.888 9.43357C119.686 12.6673 119.162 15.8728 118.325 19.0029V139.501C119.684 141.723 121.702 157.654 115.619 163.736C115.619 163.736 115.261 161.962 113.277 163.933Z" fill="white" stroke="black" stroke-width="3.89609" stroke-linecap="round" stroke-linejoin="round"/>
<path d="M113.288 21.6805C111.446 23.5179 109.96 22.066 109.96 18.3917C109.922 14.8042 111.094 11.3086 113.288 8.46968C115.106 6.66605 116.594 8.11747 116.594 11.7694C116.631 15.3497 115.467 18.8392 113.288 21.6805Z" fill="white" stroke="black" stroke-width="3.89609" stroke-linecap="round" stroke-linejoin="round"/>
<path d="M113.288 157.309C111.446 159.146 109.96 157.694 109.96 154.02C109.922 150.432 111.094 146.937 113.288 144.098C115.106 142.294 116.594 143.746 116.594 147.397C116.631 150.978 115.467 154.467 113.288 157.309Z" fill="white" stroke="black" stroke-width="3.89609" stroke-linecap="round" stroke-linejoin="round"/>
<path d="M778.275 163.933L667.082 234.665V84.5875C667.082 84.5875 665.496 74.4883 678.889 61.0951L777.989 3.66362C784.072 -2.3535 784.888 9.43503 784.888 9.43503C784.686 12.6687 784.163 15.8743 783.326 19.0044V139.503C784.684 141.724 786.702 157.655 780.619 163.738C780.619 163.738 780.259 161.962 778.275 163.933Z" fill="white" stroke="black" stroke-width="3.89609" stroke-linecap="round" stroke-linejoin="round"/>
<path d="M778.286 21.6805C776.443 23.5179 774.959 22.066 774.959 18.3917C774.92 14.8041 776.092 11.3084 778.286 8.46968C780.104 6.66605 781.591 8.11747 781.591 11.7694C781.628 15.3497 780.465 18.8391 778.286 21.6805Z" fill="white" stroke="black" stroke-width="3.89609" stroke-linecap="round" stroke-linejoin="round"/>
<path d="M778.286 157.309C776.443 159.146 774.959 157.694 774.959 154.02C774.92 150.432 776.092 146.937 778.286 144.098C780.104 142.294 781.591 143.746 781.591 147.397C781.628 150.977 780.465 154.467 778.286 157.309Z" fill="white" stroke="black" stroke-width="3.89609" stroke-linecap="round" stroke-linejoin="round"/>
<path d="M667.082 163.533H117.888" stroke="black" stroke-width="3.89609" stroke-linecap="round" stroke-linejoin="round"/>
<path d="M630.472 255.113H52.0482C23.5778 255.113 24.8975 214.217 24.8975 214.217H657.633C657.633 214.217 656.921 255.113 630.472 255.113Z" fill="white" stroke="black" stroke-width="3.89609" stroke-linecap="round" stroke-linejoin="round"/>
</svg>
