<svg width="877" height="280" viewBox="0 0 877 280" fill="none" xmlns="http://www.w3.org/2000/svg">
<path d="M 838.584 127.286 H 180.363 L 1.82477 258.485 H 697.007 L 838.584 127.286 Z" fill="white" stroke="black" stroke-width="3.64929" stroke-linecap="round" stroke-linejoin="round"/>
<path d="M 718.345 153.174 H 180.825" stroke="black" stroke-width="3.64929" stroke-linecap="round" stroke-linejoin="round"/>
<path d="M 175.629 153.548 L 4.00566 258.486 V 117.916 C 4.00566 117.916 2.52065 108.456 15.065 95.9116 L 175.363 3.4303 C 181.06 -2.20566 181.825 8.83564 181.825 8.83564 C 181.635 11.8646 181.145 14.8673 180.362 17.7993 V 130.664 C 181.634 132.745 183.524 147.667 177.826 153.365 C 177.826 153.365 177.487 151.703 175.629 153.548 Z" fill="white" stroke="black" stroke-width="3.64929" stroke-linecap="round" stroke-linejoin="round"/>
<path d="M 175.639 20.3073 C 173.914 22.0283 172.522 20.6684 172.522 17.2269 C 172.486 13.8666 173.585 10.5924 175.639 7.93333 C 177.342 6.24347 178.735 7.60344 178.735 11.024 C 178.77 14.3775 177.68 17.6459 175.639 20.3073 Z" fill="white" stroke="black" stroke-width="3.64929" stroke-linecap="round" stroke-linejoin="round"/>
<path d="M 175.639 147.344 C 173.914 149.065 172.522 147.705 172.522 144.263 C 172.486 140.903 173.585 137.629 175.639 134.97 C 177.342 133.28 178.735 134.64 178.735 138.06 C 178.77 141.414 177.68 144.683 175.639 147.344 Z" fill="white" stroke="black" stroke-width="3.64929" stroke-linecap="round" stroke-linejoin="round"/>
<path d="M 868.63 153.548 L 697.007 258.486 V 117.916 C 697.007 117.916 695.521 108.456 708.066 95.9116 L 868.362 3.43177 C 874.06 -2.20419 874.825 8.8371 874.825 8.8371 C 874.635 11.8661 874.145 14.8688 873.361 17.8007 V 130.665 C 874.633 132.747 876.524 147.668 870.826 153.366 C 870.826 153.366 870.489 151.703 868.63 153.548 Z" fill="white" stroke="black" stroke-width="3.64929" stroke-linecap="round" stroke-linejoin="round"/>
<path d="M 868.641 20.3073 C 866.915 22.0283 865.524 20.6684 865.524 17.2269 C 865.488 13.8666 866.586 10.5924 868.641 7.93333 C 870.344 6.24347 871.737 7.60344 871.737 11.024 C 871.772 14.3775 870.682 17.6459 868.641 20.3073 Z" fill="white" stroke="black" stroke-width="3.64929" stroke-linecap="round" stroke-linejoin="round"/>
<path d="M 868.641 147.344 C 866.915 149.065 865.524 147.705 865.524 144.263 C 865.488 140.903 866.586 137.629 868.641 134.97 C 870.344 133.28 871.737 134.64 871.737 138.06 C 871.772 141.414 870.682 144.683 868.641 147.344 Z" fill="white" stroke="black" stroke-width="3.64929" stroke-linecap="round" stroke-linejoin="round"/>
<path d="M 657.232 277.639 H 40.9901 C 12.0907 277.639 13.4302 239.333 13.4302 239.333 H 684.802 C 684.802 239.333 684.081 277.639 657.232 277.639 Z" fill="white" stroke="black" stroke-width="3.64929" stroke-linecap="round" stroke-linejoin="round"/>
</svg>
