<svg xmlns="http://www.w3.org/2000/svg" width="847" height="213" viewBox="27.85 102.44 227.10 57.13"><title>drawer-shelf</title><path d="M43.8111,125.4011l19.8182-11.6395c.2633-.9584,3.2782-8.8991,3.2782-8.8991s-.9713-.264-1.41.1752L30.8475,125.4428Z" style="fill:#1a1a1a;stroke:#000;stroke-linecap:round;stroke-linejoin:round;stroke-width:0.75px"/><path d="M66.2678,136.5729c1.1774-1.1794,1.2363-3.6722,1.2363-3.6722a3.3675,3.3675,0,0,0-.3025-1.2433V108.2822a9.6692,9.6692,0,0,0,.3025-1.853s-.0589-2.4212-1.2363-1.2438L32.2731,125.4428v31.1311Z" style="fill:#fff;stroke:#000;stroke-linecap:round;stroke-linejoin:round;stroke-width:0.75px"/><rect x="30.8475" y="125.4428" width="1.4256" height="31.1311" style="fill:#1d1d1b;stroke:#000;stroke-linecap:round;stroke-linejoin:round;stroke-width:0.75px"/><path d="M66.1974,108.7043c-.3539.3539-.6413.0664-.6413-.6418a3.13,3.13,0,0,1,.6413-1.927c.3539-.3539.6418-.069.6418.6418A3.1362,3.1362,0,0,1,66.1974,108.7043Z" style="fill:#fff;stroke:#000;stroke-linecap:round;stroke-linejoin:round;stroke-width:0.75px"/><path d="M66.1974,135.3167c-.3539.3539-.6413.0664-.6413-.6418a3.13,3.13,0,0,1,.6413-1.927c.3539-.3539.6418-.069.6418.6418A3.1362,3.1362,0,0,1,66.1974,135.3167Z" style="fill:#fff;stroke:#000;stroke-linecap:round;stroke-linejoin:round;stroke-width:0.75px"/><rect x="32.8145" y="131.1255" width="183.4226" height="25.4485" style="fill:#fff;stroke:#000;stroke-linecap:round;stroke-linejoin:round;stroke-width:0.75px"/><rect x="32.2731" y="125.4441" width="184.2565" height="5.5388" style="fill:#fff;stroke:#000;stroke-linecap:round;stroke-linejoin:round;stroke-width:0.75px"/><polygon points="216.53 125.444 32.273 125.444 66.198 105.443 250.524 105.443 216.53 125.444" style="fill:#fff;stroke:#000;stroke-linecap:round;stroke-linejoin:round;stroke-width:0.75px"/><path d="M229.4933,125.4011l19.8181-11.6395c.2633-.9584,3.2783-8.8991,3.2783-8.8991s-.9714-.264-1.4106.1752l-34.65,20.4051Z" style="fill:#1a1a1a;stroke:#000;stroke-linecap:round;stroke-linejoin:round;stroke-width:0.75px"/><path d="M251.95,136.5729c1.1774-1.1794,1.2363-3.6722,1.2363-3.6722a3.3653,3.3653,0,0,0-.3025-1.2433V108.2822a9.66,9.66,0,0,0,.3025-1.853s-.0589-2.4212-1.2363-1.2438l-33.9947,20.2574v31.1311Z" style="fill:#fff;stroke:#000;stroke-linecap:round;stroke-linejoin:round;stroke-width:0.75px"/><path d="M220.7635,153.1708c-.32.3191-.58.0589-.58-.58a2.8159,2.8159,0,0,1,.58-1.7327c.3172-.32.5774-.0614.5774.5774A2.8325,2.8325,0,0,1,220.7635,153.1708Z"/><path d="M239.39,142.5121c-.32.32-.5779.0614-.5779-.5774a2.81,2.81,0,0,1,.5779-1.7332c.3192-.3191.5774-.0614.5774.5779A2.8119,2.8119,0,0,1,239.39,142.5121Z"/><path d="M230.0756,147.8406c-.3191.32-.5774.0614-.5774-.5774a2.8186,2.8186,0,0,1,.5774-1.7332c.32-.3191.5779-.0614.5779.5779A2.8124,2.8124,0,0,1,230.0756,147.8406Z"/><path d="M248.7028,137.1838c-.32.3192-.5773.0614-.5773-.5779a2.8148,2.8148,0,0,1,.5773-1.7326c.32-.32.5779-.0614.5779.5774A2.8033,2.8033,0,0,1,248.7028,137.1838Z"/><path d="M220.7635,127.7277c-.32.3191-.58.0589-.58-.58a2.8159,2.8159,0,0,1,.58-1.7327c.3172-.32.5774-.0614.5774.5774A2.8325,2.8325,0,0,1,220.7635,127.7277Z"/><path d="M239.39,116.4023c-.32.32-.5779.0614-.5779-.5774a2.81,2.81,0,0,1,.5779-1.7332c.3192-.3191.5774-.0614.5774.5779A2.8119,2.8119,0,0,1,239.39,116.4023Z"/><path d="M230.0756,122.0641c-.3191.32-.5774.0614-.5774-.5774a2.8181,2.8181,0,0,1,.5774-1.7331c.32-.3192.5779-.0615.5779.5778A2.8122,2.8122,0,0,1,230.0756,122.0641Z"/><path d="M248.7028,110.7407c-.32.3191-.5773.0614-.5773-.5779a2.8145,2.8145,0,0,1,.5773-1.7326c.32-.32.5779-.0615.5779.5773A2.8036,2.8036,0,0,1,248.7028,110.7407Z"/><rect x="216.5296" y="125.4428" width="1.4256" height="31.1311" style="fill:#1d1d1b;stroke:#000;stroke-linecap:round;stroke-linejoin:round;stroke-width:0.75px"/><path d="M251.88,108.7043c-.3539.3539-.6413.0664-.6413-.6418a3.13,3.13,0,0,1,.6413-1.927c.3539-.3539.6418-.069.6418.6418A3.1362,3.1362,0,0,1,251.88,108.7043Z" style="fill:#fff;stroke:#000;stroke-linecap:round;stroke-linejoin:round;stroke-width:0.75px"/><path d="M251.88,135.3167c-.3539.3539-.6413.0664-.6413-.6418a3.13,3.13,0,0,1,.6413-1.927c.3539-.3539.6418-.069.6418.6418A3.1362,3.1362,0,0,1,251.88,135.3167Z" style="fill:#fff;stroke:#000;stroke-linecap:round;stroke-linejoin:round;stroke-width:0.75px"/></svg>