<?xml version="1.0" encoding="utf-8"?>
<!-- Generator: Adobe Illustrator 26.1.0, SVG Export Plug-In . SVG Version: 6.00 Build 0)  -->
<svg version="1.1" xmlns="http://www.w3.org/2000/svg" xmlns:xlink="http://www.w3.org/1999/xlink" x="0px" y="0px"
	 viewBox="0.00 24.10 283.00 253.80" style="enable-background:new 0 0 283.5 283.5;" xml:space="preserve">
<style type="text/css">
	.st0{fill:#FFFFFF;stroke:#000000;stroke-width:0.75;stroke-linecap:round;stroke-linejoin:round;}
	.st1{fill:#1D1D1B;stroke:#000000;stroke-width:0.75;stroke-linecap:round;stroke-linejoin:round;}
	.st2{display:none;}
	.st3{display:inline;fill:#FFFFFF;stroke:#000000;stroke-width:0.75;stroke-linecap:round;stroke-linejoin:round;}
	.st4{display:inline;fill:#1D1D1B;stroke:#000000;stroke-width:0.75;stroke-linecap:round;stroke-linejoin:round;}
	.st5{display:inline;}
</style>
<g id="Layer_1">
	<ellipse class="st0" cx="95" cy="270.5" rx="10.3" ry="4.4"/>
	<ellipse class="st0" cx="95" cy="269.9" rx="10.3" ry="4.4"/>
	<ellipse class="st0" cx="95" cy="269.3" rx="6.2" ry="2.6"/>
	<ellipse class="st0" cx="95" cy="268.7" rx="3.9" ry="1.7"/>
	<path class="st0" d="M100.2,268.2c0,0-0.9,1.8-5.2,1.8s-5.2-1.8-5.2-1.8V92.7h10.4L100.2,268.2z"/>
	<ellipse class="st0" cx="158" cy="234.4" rx="10.3" ry="4.4"/>
	<ellipse class="st0" cx="158" cy="233.8" rx="10.3" ry="4.4"/>
	<ellipse class="st0" cx="158" cy="233.2" rx="6.2" ry="2.6"/>
	<ellipse class="st0" cx="158" cy="232.5" rx="3.9" ry="1.7"/>
	<path class="st0" d="M163.2,232c0,0-0.9,1.8-5.2,1.8c-4.3,0-5.2-1.8-5.2-1.8V56.6h10.4V232z"/>
	<path class="st0" d="M101.2,52.9c0,0,17.5-9.8,18.1-10.5c1.2-1.2,1.8-15.2,1.8-16.3c0.2-2.1,1.8-1.8,1.8-1.8
		c0,2.3-0.1,20.1-0.1,20.1l-21.7,13.3V52.9z"/>
	<path class="st0" d="M102,52.9c0,0,17.3-9.7,18-10.4c1.2-1.2,1.7-15.4,1.8-16.5c0.2-2.2,2-2.2,2-0.8c0,2.3-0.1,19.1-0.1,19.1
		L102,57.6V52.9z"/>
	<rect x="101.2" y="52.9" class="st1" width="0.8" height="4.7"/>
	<path class="st0" d="M122.8,27.1c-0.3,0.3-0.5,0.1-0.5-0.5c0-0.6,0.2-1.2,0.5-1.6c0.3-0.3,0.5-0.1,0.5,0.5
		C123.4,26,123.2,26.6,122.8,27.1z"/>
	<rect x="2" y="109.9" class="st0" width="156.2" height="4.7"/>
	<polygon class="st0" points="279.1,45.6 158.2,114.5 158.2,109.9 279.1,41 	"/>
	<polygon class="st0" points="158.2,109.9 2,109.9 122.8,41 279.1,41 	"/>
	<path class="st0" d="M258.4,52.9c0,0,16.2-9.1,16.8-9.7c1.2-1.2,3.1-16,3.1-17.1c0.2-2.1,1.8-1.8,1.8-1.8c0,2.3-0.1,20.1-0.1,20.1
		l-21.7,13.3V52.9z"/>
	<path class="st0" d="M259.2,52.9c0,0,15.9-8.9,16.5-9.6c1.2-1.2,3.2-16.2,3.3-17.3c0.2-2.2,2-2.2,2-0.8c0,2.3-0.1,19.3-0.1,19.3
		l-21.7,13.1V52.9z"/>
	<rect x="258.4" y="52.9" class="st1" width="0.8" height="4.7"/>
	<path class="st0" d="M280,27.1c-0.3,0.3-0.5,0.1-0.5-0.5c0-0.6,0.2-1.2,0.5-1.6c0.3-0.3,0.5-0.1,0.5,0.5
		C280.5,26,280.3,26.6,280,27.1z"/>
	<path d="M266.1,52c-0.2,0.2-0.4,0-0.4-0.4c0-0.4,0.1-0.8,0.4-1.2c0.2-0.2,0.4,0,0.4,0.4C266.5,51.2,266.3,51.6,266.1,52z"/>
	<path d="M261.7,54.6c-0.2,0.2-0.4,0-0.4-0.4c0-0.4,0.1-0.8,0.4-1.2c0.2-0.2,0.4,0,0.4,0.4C262.1,53.8,262,54.2,261.7,54.6z"/>
	<path d="M274.8,46.7c-0.2,0.2-0.4,0-0.4-0.4c0-0.4,0.1-0.8,0.4-1.2c0.2-0.2,0.4,0,0.4,0.4C275.2,46,275,46.4,274.8,46.7z"/>
	<path d="M270.4,49.3c-0.2,0.2-0.4,0-0.4-0.4c0-0.4,0.1-0.8,0.4-1.2c0.2-0.2,0.4,0,0.4,0.4C270.8,48.6,270.7,49,270.4,49.3z"/>
	<path d="M279.1,44.1c-0.2,0.2-0.4,0-0.4-0.4c0-0.4,0.1-0.8,0.4-1.2c0.2-0.2,0.4,0,0.4,0.4C279.5,43.4,279.4,43.8,279.1,44.1z"/>
</g>
<g id="Layer_2" class="st2">
	<ellipse class="st3" cx="147.3" cy="257.7" rx="10.3" ry="4.4"/>
	<ellipse class="st3" cx="147.3" cy="257.1" rx="10.3" ry="4.4"/>
	<ellipse class="st3" cx="147.3" cy="256.4" rx="6.2" ry="2.6"/>
	<ellipse class="st3" cx="147.3" cy="255.8" rx="3.9" ry="1.7"/>
	<path class="st3" d="M152.5,255.3c0,0-0.9,1.8-5.2,1.8s-5.2-1.8-5.2-1.8V79.9h10.4V255.3z"/>
	<path class="st3" d="M91.1,57.7c0,0,17.5-9.8,18.1-10.5c1.2-1.2,1.8-15.2,1.8-16.3c0.2-2.1,1.8-1.8,1.8-1.8
		c0,2.3-0.1,20.1-0.1,20.1L91.1,62.4L91.1,57.7z"/>
	<path class="st3" d="M91.9,57.7c0,0,17.3-9.7,18-10.4c1.2-1.2,1.7-15.4,1.8-16.5c0.2-2.2,2-2.2,2-0.8c0,2.3-0.1,19.1-0.1,19.1
		L91.9,62.4L91.9,57.7z"/>
	<rect x="91.1" y="57.7" class="st4" width="0.8" height="4.7"/>
	<path class="st3" d="M112.7,31.8c-0.3,0.3-0.5,0.1-0.5-0.5c0-0.6,0.2-1.2,0.5-1.6c0.3-0.3,0.5-0.1,0.5,0.5
		C113.2,30.8,113,31.4,112.7,31.8z"/>
	<rect x="46.2" y="84.1" class="st3" width="156.2" height="4.7"/>
	<polygon class="st3" points="269,50.4 202.4,88.8 202.4,84.1 269,45.7 	"/>
	<polygon class="st3" points="202.4,84.1 46.2,84.1 112.7,45.7 269,45.7 	"/>
	<path class="st3" d="M248.2,57.7c0,0,16.2-9.1,16.8-9.7c1.2-1.2,3.1-16,3.1-17.1c0.2-2.1,1.8-1.8,1.8-1.8c0,2.3-0.1,20.1-0.1,20.1
		l-21.7,13.3L248.2,57.7z"/>
	<path class="st3" d="M249,57.7c0,0,15.9-8.9,16.5-9.6c1.2-1.2,3.2-16.2,3.3-17.3c0.2-2.2,2-2.2,2-0.8c0,2.3-0.1,19.3-0.1,19.3
		L249,62.4L249,57.7z"/>
	<rect x="248.2" y="57.7" class="st4" width="0.8" height="4.7"/>
	<path class="st3" d="M269.8,31.9c-0.3,0.3-0.5,0.1-0.5-0.5c0-0.6,0.2-1.2,0.5-1.6c0.3-0.3,0.5-0.1,0.5,0.5
		C270.3,30.8,270.1,31.4,269.8,31.9z"/>
	<path class="st5" d="M255.9,56.7c-0.2,0.2-0.4,0-0.4-0.4c0-0.4,0.1-0.8,0.4-1.2c0.2-0.2,0.4,0,0.4,0.4
		C256.3,56,256.1,56.4,255.9,56.7z"/>
	<path class="st5" d="M251.5,59.4c-0.2,0.2-0.4,0-0.4-0.4c0-0.4,0.1-0.8,0.4-1.2c0.2-0.2,0.4,0,0.4,0.4
		C251.9,58.6,251.8,59,251.5,59.4z"/>
	<path class="st5" d="M264.6,51.5c-0.2,0.2-0.4,0-0.4-0.4c0-0.4,0.1-0.8,0.4-1.2c0.2-0.2,0.4,0,0.4,0.4
		C265,50.8,264.8,51.2,264.6,51.5z"/>
	<path class="st5" d="M260.2,54.1c-0.2,0.2-0.4,0-0.4-0.4c0-0.4,0.1-0.8,0.4-1.2c0.2-0.2,0.4,0,0.4,0.4
		C260.6,53.4,260.5,53.8,260.2,54.1z"/>
	<path class="st5" d="M268.9,48.9c-0.2,0.2-0.4,0-0.4-0.4c0-0.4,0.1-0.8,0.4-1.2c0.2-0.2,0.4,0,0.4,0.4
		C269.3,48.1,269.2,48.6,268.9,48.9z"/>
</g>
</svg>
