<svg xmlns="http://www.w3.org/2000/svg" width="1340" height="1237" viewBox="9.79 28.21 262.84 242.49"><title>table-120</title><ellipse cx="117.2051" cy="263.314" rx="10.3112" ry="4.3889" style="fill:#fff;stroke:#000;stroke-linecap:round;stroke-linejoin:round;stroke-width:0.75px"/><ellipse cx="117.2051" cy="262.708" rx="10.3112" ry="4.3889" style="fill:#fff;stroke:#000;stroke-linecap:round;stroke-linejoin:round;stroke-width:0.75px"/><ellipse cx="117.2107" cy="262.0791" rx="6.2155" ry="2.6456" style="fill:#fff;stroke:#000;stroke-linecap:round;stroke-linejoin:round;stroke-width:0.75px"/><ellipse cx="117.2107" cy="261.4521" rx="3.9133" ry="1.6657" style="fill:#fff;stroke:#000;stroke-linecap:round;stroke-linejoin:round;stroke-width:0.75px"/><path d="M122.3934,260.9322s-.94,1.7758-5.2208,1.7758-5.2207-1.7758-5.2207-1.7758V85.521h10.4415Z" style="fill:#fff;stroke:#000;stroke-linecap:round;stroke-linejoin:round;stroke-width:0.75px"/><path d="M90.8787,57.0538s17.4722-9.849,18.1332-10.51c1.1721-1.1721,1.7568-15.2308,1.8407-16.3477.1554-2.0693,1.8437-1.7874,1.8437-1.7874,0,2.3266-.0979,20.0559-.0979,20.0559L90.8787,61.74Z" style="fill:#fff;stroke:#000;stroke-linecap:round;stroke-linejoin:round;stroke-width:0.75px"/><path d="M91.6989,57.0538s17.3136-9.69,17.9746-10.3514c1.1721-1.1721,1.7155-15.4034,1.8337-16.5171.238-2.2429,2.0094-2.19,2.0094-.802,0,2.3266-.098,19.0813-.098,19.0813L91.6989,61.74Z" style="fill:#fff;stroke:#000;stroke-linecap:round;stroke-linejoin:round;stroke-width:0.75px"/><rect x="90.8787" y="57.0538" width="0.8202" height="4.6861" style="fill:#1d1d1b;stroke:#000;stroke-linecap:round;stroke-linejoin:round;stroke-width:0.75px"/><path d="M112.48,31.2125c-.2994.2994-.5426.0562-.5426-.543a2.6483,2.6483,0,0,1,.5426-1.63c.2994-.2994.543-.0584.543.543A2.6534,2.6534,0,0,1,112.48,31.2125Z" style="fill:#fff;stroke:#000;stroke-linecap:round;stroke-linejoin:round;stroke-width:0.75px"/><rect x="12.7941" y="102.6274" width="156.2328" height="4.6861" style="fill:#fff;stroke:#000;stroke-linecap:round;stroke-linejoin:round;stroke-width:0.75px"/><polygon points="268.794 49.767 169.027 107.314 169.027 102.627 268.794 45.081 268.794 49.767" style="fill:#fff;stroke:#000;stroke-linecap:round;stroke-linejoin:round;stroke-width:0.75px"/><polygon points="169.027 102.627 12.794 102.627 112.502 45.081 268.794 45.081 169.027 102.627" style="fill:#fff;stroke:#000;stroke-linecap:round;stroke-linejoin:round;stroke-width:0.75px"/><path d="M248.0326,57.0538s16.1771-9.074,16.8381-9.7349c1.1721-1.1722,3.0519-16.0059,3.1358-17.1228.1554-2.0693,1.8438-1.7874,1.8438-1.7874,0,2.3266-.098,20.0559-.098,20.0559L248.0326,61.74Z" style="fill:#fff;stroke:#000;stroke-linecap:round;stroke-linejoin:round;stroke-width:0.75px"/><path d="M248.8529,57.0538s15.8629-8.9409,16.5239-9.6019c1.1721-1.1721,3.1662-16.1529,3.2844-17.2666.2379-2.2429,2.0093-2.19,2.0093-.802,0,2.3266-.0979,19.2951-.0979,19.2951L248.8529,61.74Z" style="fill:#fff;stroke:#000;stroke-linecap:round;stroke-linejoin:round;stroke-width:0.75px"/><rect x="248.0326" y="57.0538" width="0.8202" height="4.6861" style="fill:#1d1d1b;stroke:#000;stroke-linecap:round;stroke-linejoin:round;stroke-width:0.75px"/><path d="M269.6338,31.2125c-.2993.2994-.5425.0562-.5425-.543a2.6489,2.6489,0,0,1,.5425-1.63c.2994-.2994.5431-.0584.5431.543A2.6534,2.6534,0,0,1,269.6338,31.2125Z" style="fill:#fff;stroke:#000;stroke-linecap:round;stroke-linejoin:round;stroke-width:0.75px"/><path d="M255.75,56.0876c-.2155.2122-.3914.04-.3914-.3911A1.8826,1.8826,0,0,1,255.75,54.53c.2156-.2189.3877-.0431.3877.3877A1.8972,1.8972,0,0,1,255.75,56.0876Z"/><path d="M251.4019,58.7059c-.2156.2122-.3914.04-.3914-.391a1.8818,1.8818,0,0,1,.3914-1.1668c.2156-.219.3877-.0432.3877.3876A1.8972,1.8972,0,0,1,251.4019,58.7059Z"/><path d="M264.4455,50.8505c-.2153.2155-.3911.04-.3911-.3915a1.8837,1.8837,0,0,1,.3911-1.1668c.2155-.2189.3914-.0431.3914.3881A1.9161,1.9161,0,0,1,264.4455,50.8505Z"/><path d="M260.0952,53.4679c-.2121.2156-.3876.04-.3876-.388a1.9054,1.9054,0,0,1,.3876-1.17c.2156-.2156.3915-.0431.3915.3914A1.8971,1.8971,0,0,1,260.0952,53.4679Z"/><path d="M268.7926,48.2309c-.2155.2156-.388.04-.388-.3877a1.8979,1.8979,0,0,1,.388-1.17c.2156-.2156.3911-.04.3911.3877A1.8917,1.8917,0,0,1,268.7926,48.2309Z"/></svg>