<svg xmlns="http://www.w3.org/2000/svg" width="856" height="881" viewBox="25.63 34.34 229.58 236.21"><title>table-80</title><ellipse cx="129.7071" cy="263.1645" rx="10.3112" ry="4.3889" style="fill:#fff;stroke:#000;stroke-linecap:round;stroke-linejoin:round;stroke-width:0.75px"/><ellipse cx="129.7071" cy="262.5585" rx="10.3112" ry="4.3889" style="fill:#fff;stroke:#000;stroke-linecap:round;stroke-linejoin:round;stroke-width:0.75px"/><ellipse cx="129.7127" cy="261.9296" rx="6.2155" ry="2.6456" style="fill:#fff;stroke:#000;stroke-linecap:round;stroke-linejoin:round;stroke-width:0.75px"/><ellipse cx="129.7127" cy="261.3026" rx="3.9133" ry="1.6657" style="fill:#fff;stroke:#000;stroke-linecap:round;stroke-linejoin:round;stroke-width:0.75px"/><path d="M134.8954,260.7827s-.94,1.7758-5.2208,1.7758-5.2208-1.7758-5.2208-1.7758V85.3715h10.4416Z" style="fill:#fff;stroke:#000;stroke-linecap:round;stroke-linejoin:round;stroke-width:0.75px"/><path d="M73.4927,63.1817s17.4722-9.849,18.1331-10.51C92.798,51.5,93.3826,37.4409,93.4665,36.3241c.1554-2.0694,1.8438-1.7875,1.8438-1.7875,0,2.3266-.0979,20.0559-.0979,20.0559l-21.72,13.2753Z" style="fill:#fff;stroke:#000;stroke-linecap:round;stroke-linejoin:round;stroke-width:0.75px"/><path d="M74.3129,63.1817s17.3136-9.69,17.9745-10.3514c1.1722-1.1721,1.7156-15.4034,1.8338-16.5171.2379-2.2429,2.0093-2.19,2.0093-.802,0,2.3266-.0979,19.0813-.0979,19.0813l-21.72,13.2753Z" style="fill:#fff;stroke:#000;stroke-linecap:round;stroke-linejoin:round;stroke-width:0.75px"/><rect x="73.4927" y="63.1817" width="0.8202" height="4.6861" style="fill:#1d1d1b;stroke:#000;stroke-linecap:round;stroke-linejoin:round;stroke-width:0.75px"/><path d="M95.0939,37.34c-.2994.2994-.5426.0562-.5426-.543a2.6485,2.6485,0,0,1,.5426-1.63c.2994-.2994.543-.0583.543.543A2.6534,2.6534,0,0,1,95.0939,37.34Z" style="fill:#fff;stroke:#000;stroke-linecap:round;stroke-linejoin:round;stroke-width:0.75px"/><rect x="28.6284" y="89.5825" width="156.2328" height="4.6861" style="fill:#fff;stroke:#000;stroke-linecap:round;stroke-linejoin:round;stroke-width:0.75px"/><polygon points="251.408 55.895 184.861 94.269 184.861 89.582 251.408 51.208 251.408 55.895" style="fill:#fff;stroke:#000;stroke-linecap:round;stroke-linejoin:round;stroke-width:0.75px"/><polygon points="184.861 89.582 28.628 89.582 95.116 51.208 251.408 51.208 184.861 89.582" style="fill:#fff;stroke:#000;stroke-linecap:round;stroke-linejoin:round;stroke-width:0.75px"/><path d="M230.6076,63.2145s16.1771-9.0739,16.8381-9.7349c1.1721-1.1721,3.0519-16.0058,3.1358-17.1227.1554-2.0694,1.8438-1.7874,1.8438-1.7874,0,2.3266-.098,20.0558-.098,20.0558l-21.72,13.2753Z" style="fill:#fff;stroke:#000;stroke-linecap:round;stroke-linejoin:round;stroke-width:0.75px"/><path d="M231.4279,63.2145s15.8629-8.9408,16.5239-9.6018c1.1721-1.1721,3.1662-16.1529,3.2844-17.2667.2379-2.2429,2.0093-2.19,2.0093-.802,0,2.3267-.0979,19.2952-.0979,19.2952l-21.72,13.0614Z" style="fill:#fff;stroke:#000;stroke-linecap:round;stroke-linejoin:round;stroke-width:0.75px"/><rect x="230.6076" y="63.2145" width="0.8202" height="4.6861" style="fill:#1d1d1b;stroke:#000;stroke-linecap:round;stroke-linejoin:round;stroke-width:0.75px"/><path d="M252.2088,37.3732c-.2994.2994-.5425.0563-.5425-.543a2.6485,2.6485,0,0,1,.5425-1.63c.2994-.2994.5431-.0583.5431.5431A2.6531,2.6531,0,0,1,252.2088,37.3732Z" style="fill:#fff;stroke:#000;stroke-linecap:round;stroke-linejoin:round;stroke-width:0.75px"/><path d="M238.3254,62.2484c-.2155.2122-.3914.04-.3914-.3911a1.8826,1.8826,0,0,1,.3914-1.1668c.2156-.219.3877-.0431.3877.3877A1.8974,1.8974,0,0,1,238.3254,62.2484Z"/><path d="M233.9769,64.8667c-.2156.2122-.3914.04-.3914-.3911a1.882,1.882,0,0,1,.3914-1.1668c.2156-.2189.3877-.0431.3877.3877A1.8972,1.8972,0,0,1,233.9769,64.8667Z"/><path d="M247.0205,57.0112c-.2153.2156-.3911.04-.3911-.3914a1.8837,1.8837,0,0,1,.3911-1.1668c.2155-.219.3914-.0431.3914.388A1.9159,1.9159,0,0,1,247.0205,57.0112Z"/><path d="M242.67,59.6287c-.2121.2156-.3876.04-.3876-.388a1.9054,1.9054,0,0,1,.3876-1.17c.2156-.2156.3915-.0431.3915.3914A1.8973,1.8973,0,0,1,242.67,59.6287Z"/><path d="M251.3676,54.3916c-.2155.2156-.388.04-.388-.3876a1.8979,1.8979,0,0,1,.388-1.17c.2156-.2156.3911-.04.3911.3876A1.8914,1.8914,0,0,1,251.3676,54.3916Z"/></svg>